<svg viewBox="0 0 24 24" fill="none" xmlns="http://www.w3.org/2000/svg">
  <path data-name="layer1" d="M15.4676 5.25296L13.6687 5.25C11.6477 5.25 10.3416 6.62648 10.3416 8.75694V10.3739H8.53286C8.37657 10.3739 8.25 10.504 8.25 10.6646V13.0073C8.25 13.1679 8.37671 13.2979 8.53286 13.2979H10.3416V19.2094C10.3416 19.37 10.4681 19.5 10.6244 19.5H12.9843C13.1406 19.5 13.2672 19.3698 13.2672 19.2094V13.2979H15.382C15.5383 13.2979 15.6649 13.1679 15.6649 13.0073L15.6657 10.6646C15.6657 10.5875 15.6358 10.5137 15.5829 10.4591C15.5299 10.4046 15.4578 10.3739 15.3827 10.3739H13.2672V9.00318C13.2672 8.34437 13.42 8.00992 14.2555 8.00992L15.4673 8.00948C15.6234 8.00948 15.75 7.87932 15.75 7.71891V5.54353C15.75 5.38327 15.6236 5.25326 15.4676 5.25296Z" fill="#202020"/>
</svg>
