<svg viewBox="0 0 24 24" fill="none" xmlns="http://www.w3.org/2000/svg">
  <path data-name="layer1" fill-rule="evenodd" clip-rule="evenodd" d="M8.96858 4.5H15.0314C17.4954 4.5 19.5 6.5046 19.5 8.96858V15.0314C19.5 17.4954 17.4954 19.5 15.0314 19.5H8.96858C6.5046 19.5 4.5 17.4954 4.5 15.0314V8.96858C4.5 6.5046 6.5046 4.5 8.96858 4.5ZM15.0314 17.9909C16.6659 17.9909 17.991 16.6659 17.991 15.0314V8.96853C17.991 7.33398 16.6659 6.00895 15.0314 6.00895H8.96859C7.33407 6.00895 6.00901 7.33398 6.00901 8.96853V15.0314C6.00901 16.6659 7.33407 17.9909 8.96859 17.9909H15.0314Z" fill="#202020"/>
  <path data-name="layer2" fill-rule="evenodd" clip-rule="evenodd" d="M8.25 12C8.25 9.93225 9.93225 8.25 12 8.25C14.0678 8.25 15.75 9.93223 15.75 12C15.75 14.0677 14.0678 15.75 12 15.75C9.93225 15.75 8.25 14.0677 8.25 12ZM9.70861 12C9.70861 13.2655 10.7345 14.2914 12 14.2914C13.2655 14.2914 14.2914 13.2655 14.2914 12C14.2914 10.7345 13.2655 9.70862 12 9.70862C10.7345 9.70862 9.70861 10.7345 9.70861 12Z" fill="#202020"/>
  <path data-name="layer3" d="M15.75 9.1875C16.2678 9.1875 16.6875 8.76777 16.6875 8.25C16.6875 7.73223 16.2678 7.3125 15.75 7.3125C15.2322 7.3125 14.8125 7.73223 14.8125 8.25C14.8125 8.76777 15.2322 9.1875 15.75 9.1875Z" fill="#202020"/>
</svg>
