<svg viewBox="0 0 24 24" fill="none" xmlns="http://www.w3.org/2000/svg">
  <path data-name="layer1" fill-rule="evenodd" clip-rule="evenodd" d="M6.12704 4.5835C5.14339 4.5835 4.5 5.25196 4.5 6.13101C4.5 6.99091 5.12478 7.67966 6.08888 7.67966H6.10809C7.11079 7.67966 7.73438 6.99104 7.73438 6.13101C7.71549 5.25196 7.11079 4.5835 6.12704 4.5835ZM19.5938 12.7962V18H16.4158V13.1447C16.4158 11.925 15.9561 11.0926 14.8058 11.0926C13.9276 11.0926 13.405 11.6536 13.1751 12.1962C13.0913 12.3902 13.0697 12.6602 13.0697 12.9318V18H9.89063C9.89063 18 9.93344 9.77669 9.89063 8.9247H13.0694V10.2111C13.0664 10.2156 13.0629 10.2203 13.0594 10.225C13.0556 10.2303 13.0517 10.2355 13.0485 10.2404H13.0694V10.2111C13.4917 9.59359 14.246 8.71149 15.9342 8.71149C18.0258 8.71146 19.5938 10.0086 19.5938 12.7962ZM7.73438 18H4.5V8.71149H7.73438V18Z" fill="#202020"/>
</svg>
