<svg viewBox="0 0 24 24" fill="none" xmlns="http://www.w3.org/2000/svg">
  <path data-name="layer1" d="M18.9441 7.71714C18.4294 7.9449 17.8773 8.09936 17.2971 8.16832C17.8895 7.81401 18.3429 7.25202 18.5579 6.58443C18.0022 6.91255 17.3888 7.1508 16.7353 7.27996C16.212 6.72233 15.4676 6.375 14.6419 6.375C13.0579 6.375 11.7736 7.65781 11.7736 9.23908C11.7736 9.46334 11.7989 9.68238 11.8478 9.89184C9.46438 9.77227 7.3509 8.63171 5.93638 6.89858C5.68912 7.32096 5.54845 7.81312 5.54845 8.33848C5.54845 9.33245 6.0552 10.2095 6.82407 10.7226C6.35401 10.7069 5.91191 10.5777 5.52487 10.3631V10.3988C5.52487 11.7864 6.51391 12.9444 7.82532 13.2079C7.58505 13.2725 7.33169 13.3083 7.06957 13.3083C6.88436 13.3083 6.70524 13.29 6.52963 13.2551C6.89482 14.3939 7.95376 15.222 9.20841 15.2447C8.22723 16.0127 6.99007 16.4691 5.64632 16.4691C5.4148 16.4691 5.18675 16.4551 4.96222 16.4298C6.23171 17.244 7.73885 17.7188 9.35869 17.7188C14.635 17.7188 17.5191 13.3537 17.5191 9.56808L17.5094 9.19721C18.073 8.79575 18.5605 8.29136 18.9441 7.71714Z" fill="#202020"/>
</svg>
