<svg width="84" height="84" viewBox="0 0 84 84" fill="none" xmlns="http://www.w3.org/2000/svg">
<path d="M12.36 26V54H5.88V31.2H0.28V26H12.36ZM30.2241 54.48C27.9041 54.48 25.8374 53.9067 24.0241 52.76C22.2107 51.6133 20.7841 49.96 19.7441 47.8C18.7307 45.6133 18.2241 43.0133 18.2241 40C18.2241 36.9867 18.7307 34.4 19.7441 32.24C20.7841 30.0533 22.2107 28.3867 24.0241 27.24C25.8374 26.0933 27.9041 25.52 30.2241 25.52C32.5441 25.52 34.6107 26.0933 36.4241 27.24C38.2374 28.3867 39.6507 30.0533 40.6641 32.24C41.7041 34.4 42.2241 36.9867 42.2241 40C42.2241 43.0133 41.7041 45.6133 40.6641 47.8C39.6507 49.96 38.2374 51.6133 36.4241 52.76C34.6107 53.9067 32.5441 54.48 30.2241 54.48ZM30.2241 49C31.9307 49 33.2641 48.2667 34.2241 46.8C35.2107 45.3333 35.7041 43.0667 35.7041 40C35.7041 36.9333 35.2107 34.6667 34.2241 33.2C33.2641 31.7333 31.9307 31 30.2241 31C28.5441 31 27.2107 31.7333 26.2241 33.2C25.2641 34.6667 24.7841 36.9333 24.7841 40C24.7841 43.0667 25.2641 45.3333 26.2241 46.8C27.2107 48.2667 28.5441 49 30.2241 49ZM49.5447 54.32C48.4514 54.32 47.5314 53.9467 46.7847 53.2C46.038 52.4533 45.6647 51.52 45.6647 50.4C45.6647 49.2533 46.038 48.3333 46.7847 47.64C47.5314 46.92 48.4514 46.56 49.5447 46.56C50.638 46.56 51.558 46.92 52.3047 47.64C53.0514 48.3333 53.4247 49.2533 53.4247 50.4C53.4247 51.52 53.0514 52.4533 52.3047 53.2C51.558 53.9467 50.638 54.32 49.5447 54.32ZM68.8256 54.48C66.5056 54.48 64.439 53.9067 62.6256 52.76C60.8123 51.6133 59.3856 49.96 58.3456 47.8C57.3323 45.6133 56.8256 43.0133 56.8256 40C56.8256 36.9867 57.3323 34.4 58.3456 32.24C59.3856 30.0533 60.8123 28.3867 62.6256 27.24C64.439 26.0933 66.5056 25.52 68.8256 25.52C71.1456 25.52 73.2123 26.0933 75.0256 27.24C76.839 28.3867 78.2523 30.0533 79.2656 32.24C80.3056 34.4 80.8256 36.9867 80.8256 40C80.8256 43.0133 80.3056 45.6133 79.2656 47.8C78.2523 49.96 76.839 51.6133 75.0256 52.76C73.2123 53.9067 71.1456 54.48 68.8256 54.48ZM68.8256 49C70.5323 49 71.8656 48.2667 72.8256 46.8C73.8123 45.3333 74.3056 43.0667 74.3056 40C74.3056 36.9333 73.8123 34.6667 72.8256 33.2C71.8656 31.7333 70.5323 31 68.8256 31C67.1456 31 65.8123 31.7333 64.8256 33.2C63.8656 34.6667 63.3856 36.9333 63.3856 40C63.3856 43.0667 63.8656 45.3333 64.8256 46.8C65.8123 48.2667 67.1456 49 68.8256 49Z" fill="#C3C4D4"/>
<path d="M20.3989 13.784V18H17.6449V13.75L13.0379 6.1H15.9619L19.1409 11.387L22.3199 6.1H25.0229L20.3989 13.784ZM32.4235 18.204C31.1882 18.204 30.0718 17.9377 29.0745 17.405C28.0885 16.8723 27.3122 16.1413 26.7455 15.212C26.1902 14.2713 25.9125 13.2173 25.9125 12.05C25.9125 10.8827 26.1902 9.83433 26.7455 8.905C27.3122 7.96433 28.0885 7.22767 29.0745 6.695C30.0718 6.16233 31.1882 5.896 32.4235 5.896C33.6588 5.896 34.7695 6.16233 35.7555 6.695C36.7415 7.22767 37.5178 7.96433 38.0845 8.905C38.6512 9.83433 38.9345 10.8827 38.9345 12.05C38.9345 13.2173 38.6512 14.2713 38.0845 15.212C37.5178 16.1413 36.7415 16.8723 35.7555 17.405C34.7695 17.9377 33.6588 18.204 32.4235 18.204ZM32.4235 15.858C33.1262 15.858 33.7608 15.6993 34.3275 15.382C34.8942 15.0533 35.3362 14.6 35.6535 14.022C35.9822 13.444 36.1465 12.7867 36.1465 12.05C36.1465 11.3133 35.9822 10.656 35.6535 10.078C35.3362 9.5 34.8942 9.05233 34.3275 8.735C33.7608 8.40633 33.1262 8.242 32.4235 8.242C31.7208 8.242 31.0862 8.40633 30.5195 8.735C29.9528 9.05233 29.5052 9.5 29.1765 10.078C28.8592 10.656 28.7005 11.3133 28.7005 12.05C28.7005 12.7867 28.8592 13.444 29.1765 14.022C29.5052 14.6 29.9528 15.0533 30.5195 15.382C31.0862 15.6993 31.7208 15.858 32.4235 15.858ZM50.0453 11.863H52.5613V16.691C51.9153 17.1783 51.1673 17.5523 50.3173 17.813C49.4673 18.0737 48.6116 18.204 47.7503 18.204C46.5149 18.204 45.4043 17.9433 44.4183 17.422C43.4323 16.8893 42.6559 16.1583 42.0893 15.229C41.5339 14.2883 41.2563 13.2287 41.2563 12.05C41.2563 10.8713 41.5339 9.81733 42.0893 8.888C42.6559 7.94733 43.4379 7.21633 44.4353 6.695C45.4326 6.16233 46.5546 5.896 47.8013 5.896C48.8439 5.896 49.7903 6.07167 50.6403 6.423C51.4903 6.77433 52.2043 7.28433 52.7823 7.953L51.0143 9.585C50.1643 8.68967 49.1386 8.242 47.9373 8.242C47.1779 8.242 46.5036 8.40067 45.9143 8.718C45.3249 9.03533 44.8659 9.483 44.5373 10.061C44.2086 10.639 44.0443 11.302 44.0443 12.05C44.0443 12.7867 44.2086 13.444 44.5373 14.022C44.8659 14.6 45.3193 15.0533 45.8973 15.382C46.4866 15.6993 47.1553 15.858 47.9033 15.858C48.6966 15.858 49.4106 15.688 50.0453 15.348V11.863ZM63.9565 15.45H58.4315L57.3775 18H54.5555L59.8595 6.1H62.5795L67.9005 18H65.0105L63.9565 15.45ZM63.0895 13.359L61.2025 8.803L59.3155 13.359H63.0895Z" fill="#C3C4D4"/>
<rect y="61" width="83" height="22" fill="#C3C4D4"/>
<path d="M13.993 78L11.698 74.685H11.562H9.165V78H6.411V66.1H11.562C12.616 66.1 13.5283 66.2757 14.299 66.627C15.081 66.9783 15.6817 67.477 16.101 68.123C16.5203 68.769 16.73 69.534 16.73 70.418C16.73 71.302 16.5147 72.067 16.084 72.713C15.6647 73.3477 15.064 73.835 14.282 74.175L16.951 78H13.993ZM13.942 70.418C13.942 69.7493 13.7267 69.2393 13.296 68.888C12.8653 68.5253 12.2363 68.344 11.409 68.344H9.165V72.492H11.409C12.2363 72.492 12.8653 72.3107 13.296 71.948C13.7267 71.5853 13.942 71.0753 13.942 70.418ZM27.749 75.45H22.224L21.17 78H18.348L23.652 66.1H26.372L31.693 78H28.803L27.749 75.45ZM26.882 73.359L24.995 68.803L23.108 73.359H26.882ZM35.7949 68.344H31.9869V66.1H42.3569V68.344H38.5489V78H35.7949V68.344ZM44.8387 66.1H47.5927V78H44.8387V66.1ZM62.3309 66.1V78H60.0699L54.1369 70.775V78H51.4169V66.1H53.6949L59.6109 73.325V66.1H62.3309ZM74.1874 71.863H76.7034V76.691C76.0574 77.1783 75.3094 77.5523 74.4594 77.813C73.6094 78.0737 72.7537 78.204 71.8924 78.204C70.657 78.204 69.5464 77.9433 68.5604 77.422C67.5744 76.8893 66.798 76.1583 66.2314 75.229C65.676 74.2883 65.3984 73.2287 65.3984 72.05C65.3984 70.8713 65.676 69.8173 66.2314 68.888C66.798 67.9473 67.58 67.2163 68.5774 66.695C69.5747 66.1623 70.6967 65.896 71.9434 65.896C72.986 65.896 73.9324 66.0717 74.7824 66.423C75.6324 66.7743 76.3464 67.2843 76.9244 67.953L75.1564 69.585C74.3064 68.6897 73.2807 68.242 72.0794 68.242C71.32 68.242 70.6457 68.4007 70.0564 68.718C69.467 69.0353 69.008 69.483 68.6794 70.061C68.3507 70.639 68.1864 71.302 68.1864 72.05C68.1864 72.7867 68.3507 73.444 68.6794 74.022C69.008 74.6 69.4614 75.0533 70.0394 75.382C70.6287 75.6993 71.2974 75.858 72.0454 75.858C72.8387 75.858 73.5527 75.688 74.1874 75.348V71.863Z" fill="white"/>
</svg>
