<svg width="90" height="90" viewBox="0 0 90 90" fill="none" xmlns="http://www.w3.org/2000/svg">
<circle cx="45" cy="45" r="43.5" stroke="#C3C4D4" stroke-width="3"/>
<path d="M22.888 34.6V57H17.704V38.76H13.224V34.6H22.888ZM37.3793 57.384C35.5233 57.384 33.8699 56.9253 32.4193 56.008C30.9686 55.0907 29.8273 53.768 28.9953 52.04C28.1846 50.2907 27.7793 48.2107 27.7793 45.8C27.7793 43.3893 28.1846 41.32 28.9953 39.592C29.8273 37.8427 30.9686 36.5093 32.4193 35.592C33.8699 34.6747 35.5233 34.216 37.3793 34.216C39.2353 34.216 40.8886 34.6747 42.3393 35.592C43.7899 36.5093 44.9206 37.8427 45.7313 39.592C46.5633 41.32 46.9793 43.3893 46.9793 45.8C46.9793 48.2107 46.5633 50.2907 45.7313 52.04C44.9206 53.768 43.7899 55.0907 42.3393 56.008C40.8886 56.9253 39.2353 57.384 37.3793 57.384ZM37.3793 53C38.7446 53 39.8113 52.4133 40.5793 51.24C41.3686 50.0667 41.7633 48.2533 41.7633 45.8C41.7633 43.3467 41.3686 41.5333 40.5793 40.36C39.8113 39.1867 38.7446 38.6 37.3793 38.6C36.0353 38.6 34.9686 39.1867 34.1793 40.36C33.4113 41.5333 33.0273 43.3467 33.0273 45.8C33.0273 48.2533 33.4113 50.0667 34.1793 51.24C34.9686 52.4133 36.0353 53 37.3793 53ZM53.0358 57.256C52.1611 57.256 51.4251 56.9573 50.8278 56.36C50.2304 55.7627 49.9318 55.016 49.9318 54.12C49.9318 53.2027 50.2304 52.4667 50.8278 51.912C51.4251 51.336 52.1611 51.048 53.0358 51.048C53.9104 51.048 54.6464 51.336 55.2438 51.912C55.8411 52.4667 56.1398 53.2027 56.1398 54.12C56.1398 55.016 55.8411 55.7627 55.2438 56.36C54.6464 56.9573 53.9104 57.256 53.0358 57.256ZM68.6605 57.384C66.8045 57.384 65.1512 56.9253 63.7005 56.008C62.2498 55.0907 61.1085 53.768 60.2765 52.04C59.4658 50.2907 59.0605 48.2107 59.0605 45.8C59.0605 43.3893 59.4658 41.32 60.2765 39.592C61.1085 37.8427 62.2498 36.5093 63.7005 35.592C65.1512 34.6747 66.8045 34.216 68.6605 34.216C70.5165 34.216 72.1698 34.6747 73.6205 35.592C75.0712 36.5093 76.2018 37.8427 77.0125 39.592C77.8445 41.32 78.2605 43.3893 78.2605 45.8C78.2605 48.2107 77.8445 50.2907 77.0125 52.04C76.2018 53.768 75.0712 55.0907 73.6205 56.008C72.1698 56.9253 70.5165 57.384 68.6605 57.384ZM68.6605 53C70.0258 53 71.0925 52.4133 71.8605 51.24C72.6498 50.0667 73.0445 48.2533 73.0445 45.8C73.0445 43.3467 72.6498 41.5333 71.8605 40.36C71.0925 39.1867 70.0258 38.6 68.6605 38.6C67.3165 38.6 66.2498 39.1867 65.4605 40.36C64.6925 41.5333 64.3085 43.3467 64.3085 45.8C64.3085 48.2533 64.6925 50.0667 65.4605 51.24C66.2498 52.4133 67.3165 53 68.6605 53Z" fill="#C3C4D4"/>
<path d="M33.7465 22.016V24H32.4505V22L30.2825 18.4H31.6585L33.1545 20.888L34.6505 18.4H35.9225L33.7465 22.016ZM39.9346 24.096C39.3533 24.096 38.8279 23.9707 38.3586 23.72C37.8946 23.4693 37.5293 23.1253 37.2626 22.688C37.0013 22.2453 36.8706 21.7493 36.8706 21.2C36.8706 20.6507 37.0013 20.1573 37.2626 19.72C37.5293 19.2773 37.8946 18.9307 38.3586 18.68C38.8279 18.4293 39.3533 18.304 39.9346 18.304C40.5159 18.304 41.0386 18.4293 41.5026 18.68C41.9666 18.9307 42.3319 19.2773 42.5986 19.72C42.8653 20.1573 42.9986 20.6507 42.9986 21.2C42.9986 21.7493 42.8653 22.2453 42.5986 22.688C42.3319 23.1253 41.9666 23.4693 41.5026 23.72C41.0386 23.9707 40.5159 24.096 39.9346 24.096ZM39.9346 22.992C40.2653 22.992 40.5639 22.9173 40.8306 22.768C41.0973 22.6133 41.3053 22.4 41.4546 22.128C41.6093 21.856 41.6866 21.5467 41.6866 21.2C41.6866 20.8533 41.6093 20.544 41.4546 20.272C41.3053 20 41.0973 19.7893 40.8306 19.64C40.5639 19.4853 40.2653 19.408 39.9346 19.408C39.6039 19.408 39.3053 19.4853 39.0386 19.64C38.7719 19.7893 38.5613 20 38.4066 20.272C38.2573 20.544 38.1826 20.8533 38.1826 21.2C38.1826 21.5467 38.2573 21.856 38.4066 22.128C38.5613 22.4 38.7719 22.6133 39.0386 22.768C39.3053 22.9173 39.6039 22.992 39.9346 22.992ZM48.7566 21.112H49.9406V23.384C49.6366 23.6133 49.2846 23.7893 48.8846 23.912C48.4846 24.0347 48.0819 24.096 47.6766 24.096C47.0953 24.096 46.5726 23.9733 46.1086 23.728C45.6446 23.4773 45.2793 23.1333 45.0126 22.696C44.7513 22.2533 44.6206 21.7547 44.6206 21.2C44.6206 20.6453 44.7513 20.1493 45.0126 19.712C45.2793 19.2693 45.6473 18.9253 46.1166 18.68C46.5859 18.4293 47.1139 18.304 47.7006 18.304C48.1913 18.304 48.6366 18.3867 49.0366 18.552C49.4366 18.7173 49.7726 18.9573 50.0446 19.272L49.2126 20.04C48.8126 19.6187 48.3299 19.408 47.7646 19.408C47.4073 19.408 47.0899 19.4827 46.8126 19.632C46.5353 19.7813 46.3193 19.992 46.1646 20.264C46.0099 20.536 45.9326 20.848 45.9326 21.2C45.9326 21.5467 46.0099 21.856 46.1646 22.128C46.3193 22.4 46.5326 22.6133 46.8046 22.768C47.0819 22.9173 47.3966 22.992 47.7486 22.992C48.1219 22.992 48.4579 22.912 48.7566 22.752V21.112ZM55.8325 22.8H53.2325L52.7365 24H51.4085L53.9045 18.4H55.1845L57.6885 24H56.3285L55.8325 22.8ZM55.4245 21.816L54.5365 19.672L53.6485 21.816H55.4245Z" fill="#C3C4D4"/>
<path d="M31.232 74L30.152 72.44H30.088H28.96V74H27.664V68.4H30.088C30.584 68.4 31.0133 68.4827 31.376 68.648C31.744 68.8133 32.0267 69.048 32.224 69.352C32.4213 69.656 32.52 70.016 32.52 70.432C32.52 70.848 32.4187 71.208 32.216 71.512C32.0187 71.8107 31.736 72.04 31.368 72.2L32.624 74H31.232ZM31.208 70.432C31.208 70.1173 31.1067 69.8773 30.904 69.712C30.7013 69.5413 30.4053 69.456 30.016 69.456H28.96V71.408H30.016C30.4053 71.408 30.7013 71.3227 30.904 71.152C31.1067 70.9813 31.208 70.7413 31.208 70.432ZM38.2348 72.8H35.6348L35.1388 74H33.8108L36.3068 68.4H37.5868L40.0908 74H38.7308L38.2348 72.8ZM37.8268 71.816L36.9388 69.672L36.0508 71.816H37.8268ZM42.5506 69.456H40.7586V68.4H45.6386V69.456H43.8466V74H42.5506V69.456ZM47.3359 68.4H48.6319V74H47.3359V68.4ZM56.0969 68.4V74H55.0329L52.2409 70.6V74H50.9609V68.4H52.0329L54.8169 71.8V68.4H56.0969ZM62.2058 71.112H63.3898V73.384C63.0858 73.6133 62.7338 73.7893 62.3338 73.912C61.9338 74.0347 61.5311 74.096 61.1258 74.096C60.5445 74.096 60.0218 73.9733 59.5578 73.728C59.0938 73.4773 58.7285 73.1333 58.4618 72.696C58.2005 72.2533 58.0698 71.7547 58.0698 71.2C58.0698 70.6453 58.2005 70.1493 58.4618 69.712C58.7285 69.2693 59.0965 68.9253 59.5658 68.68C60.0351 68.4293 60.5631 68.304 61.1498 68.304C61.6405 68.304 62.0858 68.3867 62.4858 68.552C62.8858 68.7173 63.2218 68.9573 63.4938 69.272L62.6618 70.04C62.2618 69.6187 61.7791 69.408 61.2138 69.408C60.8565 69.408 60.5391 69.4827 60.2618 69.632C59.9845 69.7813 59.7685 69.992 59.6138 70.264C59.4591 70.536 59.3818 70.848 59.3818 71.2C59.3818 71.5467 59.4591 71.856 59.6138 72.128C59.7685 72.4 59.9818 72.6133 60.2538 72.768C60.5311 72.9173 60.8458 72.992 61.1978 72.992C61.5711 72.992 61.9071 72.912 62.2058 72.752V71.112Z" fill="#C3C4D4"/>
</svg>
