<svg width="110" height="78" viewBox="0 0 110 78" fill="none" xmlns="http://www.w3.org/2000/svg">
<path d="M39.13 40.12C38.5767 40.12 38.04 40.0467 37.52 39.9C37.0067 39.7467 36.5933 39.55 36.28 39.31L36.83 38.09C37.13 38.31 37.4867 38.4867 37.9 38.62C38.3133 38.7533 38.7267 38.82 39.14 38.82C39.6 38.82 39.94 38.7533 40.16 38.62C40.38 38.48 40.49 38.2967 40.49 38.07C40.49 37.9033 40.4233 37.7667 40.29 37.66C40.1633 37.5467 39.9967 37.4567 39.79 37.39C39.59 37.3233 39.3167 37.25 38.97 37.17C38.4367 37.0433 38 36.9167 37.66 36.79C37.32 36.6633 37.0267 36.46 36.78 36.18C36.54 35.9 36.42 35.5267 36.42 35.06C36.42 34.6533 36.53 34.2867 36.75 33.96C36.97 33.6267 37.3 33.3633 37.74 33.17C38.1867 32.9767 38.73 32.88 39.37 32.88C39.8167 32.88 40.2533 32.9333 40.68 33.04C41.1067 33.1467 41.48 33.3 41.8 33.5L41.3 34.73C40.6533 34.3633 40.0067 34.18 39.36 34.18C38.9067 34.18 38.57 34.2533 38.35 34.4C38.1367 34.5467 38.03 34.74 38.03 34.98C38.03 35.22 38.1533 35.4 38.4 35.52C38.6533 35.6333 39.0367 35.7467 39.55 35.86C40.0833 35.9867 40.52 36.1133 40.86 36.24C41.2 36.3667 41.49 36.5667 41.73 36.84C41.9767 37.1133 42.1 37.4833 42.1 37.95C42.1 38.35 41.9867 38.7167 41.76 39.05C41.54 39.3767 41.2067 39.6367 40.76 39.83C40.3133 40.0233 39.77 40.12 39.13 40.12ZM48.517 34.62V40H47.037V39.36C46.8303 39.5933 46.5836 39.7733 46.297 39.9C46.0103 40.02 45.7003 40.08 45.367 40.08C44.6603 40.08 44.1003 39.8767 43.687 39.47C43.2736 39.0633 43.067 38.46 43.067 37.66V34.62H44.627V37.43C44.627 38.2967 44.9903 38.73 45.717 38.73C46.0903 38.73 46.3903 38.61 46.617 38.37C46.8436 38.1233 46.957 37.76 46.957 37.28V34.62H48.517ZM53.1422 34.54C53.6422 34.54 54.0955 34.6567 54.5022 34.89C54.9155 35.1167 55.2389 35.44 55.4722 35.86C55.7055 36.2733 55.8222 36.7567 55.8222 37.31C55.8222 37.8633 55.7055 38.35 55.4722 38.77C55.2389 39.1833 54.9155 39.5067 54.5022 39.74C54.0955 39.9667 53.6422 40.08 53.1422 40.08C52.4555 40.08 51.9155 39.8633 51.5222 39.43V41.94H49.9622V34.62H51.4522V35.24C51.8389 34.7733 52.4022 34.54 53.1422 34.54ZM52.8722 38.8C53.2722 38.8 53.5989 38.6667 53.8522 38.4C54.1122 38.1267 54.2422 37.7633 54.2422 37.31C54.2422 36.8567 54.1122 36.4967 53.8522 36.23C53.5989 35.9567 53.2722 35.82 52.8722 35.82C52.4722 35.82 52.1422 35.9567 51.8822 36.23C51.6289 36.4967 51.5022 36.8567 51.5022 37.31C51.5022 37.7633 51.6289 38.1267 51.8822 38.4C52.1422 38.6667 52.4722 38.8 52.8722 38.8ZM62.1365 37.33C62.1365 37.35 62.1265 37.49 62.1065 37.75H58.0365C58.1098 38.0833 58.2832 38.3467 58.5565 38.54C58.8298 38.7333 59.1698 38.83 59.5765 38.83C59.8565 38.83 60.1032 38.79 60.3165 38.71C60.5365 38.6233 60.7398 38.49 60.9265 38.31L61.7565 39.21C61.2498 39.79 60.5098 40.08 59.5365 40.08C58.9298 40.08 58.3932 39.9633 57.9265 39.73C57.4598 39.49 57.0998 39.16 56.8465 38.74C56.5932 38.32 56.4665 37.8433 56.4665 37.31C56.4665 36.7833 56.5898 36.31 56.8365 35.89C57.0898 35.4633 57.4332 35.1333 57.8665 34.9C58.3065 34.66 58.7965 34.54 59.3365 34.54C59.8632 34.54 60.3398 34.6533 60.7665 34.88C61.1932 35.1067 61.5265 35.4333 61.7665 35.86C62.0132 36.28 62.1365 36.77 62.1365 37.33ZM59.3465 35.72C58.9932 35.72 58.6965 35.82 58.4565 36.02C58.2165 36.22 58.0698 36.4933 58.0165 36.84H60.6665C60.6132 36.5 60.4665 36.23 60.2265 36.03C59.9865 35.8233 59.6932 35.72 59.3465 35.72ZM64.6651 35.33C64.8517 35.07 65.1017 34.8733 65.4151 34.74C65.7351 34.6067 66.1017 34.54 66.5151 34.54V35.98C66.3417 35.9667 66.2251 35.96 66.1651 35.96C65.7184 35.96 65.3684 36.0867 65.1151 36.34C64.8617 36.5867 64.7351 36.96 64.7351 37.46V40H63.1751V34.62H64.6651V35.33ZM70.6227 34.54C71.1227 34.54 71.576 34.6567 71.9827 34.89C72.396 35.1167 72.7193 35.44 72.9527 35.86C73.186 36.2733 73.3027 36.7567 73.3027 37.31C73.3027 37.8633 73.186 38.35 72.9527 38.77C72.7193 39.1833 72.396 39.5067 71.9827 39.74C71.576 39.9667 71.1227 40.08 70.6227 40.08C69.8827 40.08 69.3193 39.8467 68.9327 39.38V40H67.4427V32.58H69.0027V35.19C69.396 34.7567 69.936 34.54 70.6227 34.54ZM70.3527 38.8C70.7527 38.8 71.0793 38.6667 71.3327 38.4C71.5927 38.1267 71.7227 37.7633 71.7227 37.31C71.7227 36.8567 71.5927 36.4967 71.3327 36.23C71.0793 35.9567 70.7527 35.82 70.3527 35.82C69.9527 35.82 69.6227 35.9567 69.3627 36.23C69.1093 36.4967 68.9827 36.8567 68.9827 37.31C68.9827 37.7633 69.1093 38.1267 69.3627 38.4C69.6227 38.6667 69.9527 38.8 70.3527 38.8Z" fill="#C3C4D4"/>
<path d="M36.416 6.2V23H32.528V9.32H29.168V6.2H36.416ZM47.5344 23.288C46.1424 23.288 44.9024 22.944 43.8144 22.256C42.7264 21.568 41.8704 20.576 41.2464 19.28C40.6384 17.968 40.3344 16.408 40.3344 14.6C40.3344 12.792 40.6384 11.24 41.2464 9.944C41.8704 8.632 42.7264 7.632 43.8144 6.944C44.9024 6.256 46.1424 5.912 47.5344 5.912C48.9264 5.912 50.1664 6.256 51.2544 6.944C52.3424 7.632 53.1904 8.632 53.7984 9.944C54.4224 11.24 54.7344 12.792 54.7344 14.6C54.7344 16.408 54.4224 17.968 53.7984 19.28C53.1904 20.576 52.3424 21.568 51.2544 22.256C50.1664 22.944 48.9264 23.288 47.5344 23.288ZM47.5344 20C48.5584 20 49.3584 19.56 49.9344 18.68C50.5264 17.8 50.8224 16.44 50.8224 14.6C50.8224 12.76 50.5264 11.4 49.9344 10.52C49.3584 9.64 48.5584 9.2 47.5344 9.2C46.5264 9.2 45.7264 9.64 45.1344 10.52C44.5584 11.4 44.2704 12.76 44.2704 14.6C44.2704 16.44 44.5584 17.8 45.1344 18.68C45.7264 19.56 46.5264 20 47.5344 20ZM59.5268 23.192C58.8708 23.192 58.3188 22.968 57.8708 22.52C57.4228 22.072 57.1988 21.512 57.1988 20.84C57.1988 20.152 57.4228 19.6 57.8708 19.184C58.3188 18.752 58.8708 18.536 59.5268 18.536C60.1828 18.536 60.7348 18.752 61.1828 19.184C61.6308 19.6 61.8548 20.152 61.8548 20.84C61.8548 21.512 61.6308 22.072 61.1828 22.52C60.7348 22.968 60.1828 23.192 59.5268 23.192ZM71.4954 23.288C70.1034 23.288 68.8634 22.944 67.7754 22.256C66.6874 21.568 65.8314 20.576 65.2074 19.28C64.5994 17.968 64.2954 16.408 64.2954 14.6C64.2954 12.792 64.5994 11.24 65.2074 9.944C65.8314 8.632 66.6874 7.632 67.7754 6.944C68.8634 6.256 70.1034 5.912 71.4954 5.912C72.8874 5.912 74.1274 6.256 75.2154 6.944C76.3034 7.632 77.1514 8.632 77.7594 9.944C78.3834 11.24 78.6954 12.792 78.6954 14.6C78.6954 16.408 78.3834 17.968 77.7594 19.28C77.1514 20.576 76.3034 21.568 75.2154 22.256C74.1274 22.944 72.8874 23.288 71.4954 23.288ZM71.4954 20C72.5194 20 73.3194 19.56 73.8954 18.68C74.4874 17.8 74.7834 16.44 74.7834 14.6C74.7834 12.76 74.4874 11.4 73.8954 10.52C73.3194 9.64 72.5194 9.2 71.4954 9.2C70.4874 9.2 69.6874 9.64 69.0954 10.52C68.5194 11.4 68.2314 12.76 68.2314 14.6C68.2314 16.44 68.5194 17.8 69.0954 18.68C69.6874 19.56 70.4874 20 71.4954 20Z" fill="#C3C4D4"/>
<rect x="13" y="50" width="84" height="28" fill="#C3C4D4"/>
<path d="M89 41H110L104 55L110 69H89V41Z" fill="#C3C4D4"/>
<path d="M21 69L0 69L6 55L-2.44784e-06 41L21 41L21 69Z" fill="#C3C4D4"/>
<path d="M47.9833 57.096H46.0633V56.4H50.6953V57.096H48.7753V62H47.9833V57.096ZM52.8331 62.048C52.4117 62.048 52.0331 61.9547 51.6971 61.768C51.3611 61.5813 51.0971 61.3253 50.9051 61C50.7184 60.6693 50.6251 60.296 50.6251 59.88C50.6251 59.464 50.7184 59.0933 50.9051 58.768C51.0971 58.4373 51.3611 58.1813 51.6971 58C52.0331 57.8133 52.4117 57.72 52.8331 57.72C53.2544 57.72 53.6304 57.8133 53.9611 58C54.2971 58.1813 54.5584 58.4373 54.7451 58.768C54.9371 59.0933 55.0331 59.464 55.0331 59.88C55.0331 60.296 54.9371 60.6693 54.7451 61C54.5584 61.3253 54.2971 61.5813 53.9611 61.768C53.6304 61.9547 53.2544 62.048 52.8331 62.048ZM52.8331 61.376C53.1051 61.376 53.3477 61.3147 53.5611 61.192C53.7797 61.064 53.9504 60.888 54.0731 60.664C54.1957 60.4347 54.2571 60.1733 54.2571 59.88C54.2571 59.5867 54.1957 59.328 54.0731 59.104C53.9504 58.8747 53.7797 58.6987 53.5611 58.576C53.3477 58.4533 53.1051 58.392 52.8331 58.392C52.5611 58.392 52.3157 58.4533 52.0971 58.576C51.8837 58.6987 51.7131 58.8747 51.5851 59.104C51.4624 59.328 51.4011 59.5867 51.4011 59.88C51.4011 60.1733 51.4624 60.4347 51.5851 60.664C51.7131 60.888 51.8837 61.064 52.0971 61.192C52.3157 61.3147 52.5611 61.376 52.8331 61.376ZM58.3432 57.72C58.7539 57.72 59.1219 57.8107 59.4472 57.992C59.7725 58.1733 60.0259 58.4267 60.2072 58.752C60.3939 59.0773 60.4872 59.4533 60.4872 59.88C60.4872 60.3067 60.3939 60.6853 60.2072 61.016C60.0259 61.3413 59.7725 61.5947 59.4472 61.776C59.1219 61.9573 58.7539 62.048 58.3432 62.048C58.0392 62.048 57.7592 61.9893 57.5032 61.872C57.2525 61.7547 57.0392 61.584 56.8632 61.36V63.552H56.0952V57.76H56.8312V58.432C57.0019 58.1973 57.2179 58.0213 57.4792 57.904C57.7405 57.7813 58.0285 57.72 58.3432 57.72ZM58.2792 61.376C58.5512 61.376 58.7939 61.3147 59.0072 61.192C59.2259 61.064 59.3965 60.888 59.5192 60.664C59.6472 60.4347 59.7112 60.1733 59.7112 59.88C59.7112 59.5867 59.6472 59.328 59.5192 59.104C59.3965 58.8747 59.2259 58.6987 59.0072 58.576C58.7939 58.4533 58.5512 58.392 58.2792 58.392C58.0125 58.392 57.7699 58.456 57.5512 58.584C57.3379 58.7067 57.1672 58.88 57.0392 59.104C56.9165 59.328 56.8552 59.5867 56.8552 59.88C56.8552 60.1733 56.9165 60.4347 57.0392 60.664C57.1619 60.888 57.3325 61.064 57.5512 61.192C57.7699 61.3147 58.0125 61.376 58.2792 61.376ZM26.0553 66.4C26.7806 66.4 27.3513 66.5733 27.7673 66.92C28.1833 67.2667 28.3913 67.744 28.3913 68.352C28.3913 68.96 28.1833 69.4373 27.7673 69.784C27.3513 70.1307 26.7806 70.304 26.0553 70.304H24.6713V72H23.8713V66.4H26.0553ZM26.0313 69.608C26.5379 69.608 26.9246 69.5013 27.1913 69.288C27.4579 69.0693 27.5913 68.7573 27.5913 68.352C27.5913 67.9467 27.4579 67.6373 27.1913 67.424C26.9246 67.2053 26.5379 67.096 26.0313 67.096H24.6713V69.608H26.0313ZM33.2709 69.904C33.2709 69.9627 33.2656 70.04 33.2549 70.136H29.8149C29.8629 70.5093 30.0256 70.8107 30.3029 71.04C30.5856 71.264 30.9349 71.376 31.3509 71.376C31.8576 71.376 32.2656 71.2053 32.5749 70.864L32.9989 71.36C32.8069 71.584 32.5669 71.7547 32.2789 71.872C31.9963 71.9893 31.6789 72.048 31.3269 72.048C30.8789 72.048 30.4816 71.9573 30.1349 71.776C29.7883 71.5893 29.5189 71.3307 29.3269 71C29.1403 70.6693 29.0469 70.296 29.0469 69.88C29.0469 69.4693 29.1376 69.0987 29.3189 68.768C29.5056 68.4373 29.7589 68.1813 30.0789 68C30.4043 67.8133 30.7696 67.72 31.1749 67.72C31.5803 67.72 31.9403 67.8133 32.2549 68C32.5749 68.1813 32.8229 68.4373 32.9989 68.768C33.1803 69.0987 33.2709 69.4773 33.2709 69.904ZM31.1749 68.368C30.8069 68.368 30.4976 68.48 30.2469 68.704C30.0016 68.928 29.8576 69.2213 29.8149 69.584H32.5349C32.4923 69.2267 32.3456 68.936 32.0949 68.712C31.8496 68.4827 31.5429 68.368 31.1749 68.368ZM35.0734 68.472C35.2067 68.2267 35.404 68.04 35.6654 67.912C35.9267 67.784 36.244 67.72 36.6174 67.72V68.464C36.5747 68.4587 36.516 68.456 36.4414 68.456C36.0254 68.456 35.6974 68.5813 35.4574 68.832C35.2227 69.0773 35.1054 69.4293 35.1054 69.888V72H34.3374V67.76H35.0734V68.472ZM38.8112 72.048C38.4645 72.048 38.1312 72.0027 37.8112 71.912C37.4912 71.816 37.2405 71.696 37.0592 71.552L37.3792 70.944C37.5659 71.0773 37.7925 71.184 38.0592 71.264C38.3259 71.344 38.5952 71.384 38.8672 71.384C39.5392 71.384 39.8752 71.192 39.8752 70.808C39.8752 70.68 39.8299 70.5787 39.7392 70.504C39.6485 70.4293 39.5339 70.376 39.3952 70.344C39.2619 70.3067 39.0699 70.2667 38.8192 70.224C38.4779 70.1707 38.1979 70.1093 37.9792 70.04C37.7659 69.9707 37.5819 69.8533 37.4272 69.688C37.2725 69.5227 37.1952 69.2907 37.1952 68.992C37.1952 68.608 37.3552 68.3013 37.6752 68.072C37.9952 67.8373 38.4245 67.72 38.9632 67.72C39.2459 67.72 39.5285 67.7547 39.8112 67.824C40.0939 67.8933 40.3259 67.9867 40.5072 68.104L40.1792 68.712C39.8325 68.488 39.4245 68.376 38.9552 68.376C38.6299 68.376 38.3819 68.4293 38.2112 68.536C38.0405 68.6427 37.9552 68.784 37.9552 68.96C37.9552 69.0987 38.0032 69.208 38.0992 69.288C38.1952 69.368 38.3125 69.4267 38.4512 69.464C38.5952 69.5013 38.7952 69.544 39.0512 69.592C39.3925 69.6507 39.6672 69.7147 39.8752 69.784C40.0885 69.848 40.2699 69.96 40.4192 70.12C40.5685 70.28 40.6432 70.504 40.6432 70.792C40.6432 71.176 40.4779 71.4827 40.1472 71.712C39.8219 71.936 39.3765 72.048 38.8112 72.048ZM43.419 72.048C42.9977 72.048 42.619 71.9547 42.283 71.768C41.947 71.5813 41.683 71.3253 41.491 71C41.3043 70.6693 41.211 70.296 41.211 69.88C41.211 69.464 41.3043 69.0933 41.491 68.768C41.683 68.4373 41.947 68.1813 42.283 68C42.619 67.8133 42.9977 67.72 43.419 67.72C43.8403 67.72 44.2163 67.8133 44.547 68C44.883 68.1813 45.1443 68.4373 45.331 68.768C45.523 69.0933 45.619 69.464 45.619 69.88C45.619 70.296 45.523 70.6693 45.331 71C45.1443 71.3253 44.883 71.5813 44.547 71.768C44.2163 71.9547 43.8403 72.048 43.419 72.048ZM43.419 71.376C43.691 71.376 43.9337 71.3147 44.147 71.192C44.3657 71.064 44.5363 70.888 44.659 70.664C44.7817 70.4347 44.843 70.1733 44.843 69.88C44.843 69.5867 44.7817 69.328 44.659 69.104C44.5363 68.8747 44.3657 68.6987 44.147 68.576C43.9337 68.4533 43.691 68.392 43.419 68.392C43.147 68.392 42.9017 68.4533 42.683 68.576C42.4697 68.6987 42.299 68.8747 42.171 69.104C42.0483 69.328 41.987 69.5867 41.987 69.88C41.987 70.1733 42.0483 70.4347 42.171 70.664C42.299 70.888 42.4697 71.064 42.683 71.192C42.9017 71.3147 43.147 71.376 43.419 71.376ZM48.9451 67.72C49.4838 67.72 49.9105 67.8773 50.2251 68.192C50.5451 68.5013 50.7051 68.9573 50.7051 69.56V72H49.9371V69.648C49.9371 69.2373 49.8385 68.928 49.6411 68.72C49.4438 68.512 49.1611 68.408 48.7931 68.408C48.3771 68.408 48.0491 68.5307 47.8091 68.776C47.5691 69.016 47.4491 69.3627 47.4491 69.816V72H46.6811V67.76H47.4171V68.4C47.5718 68.1813 47.7798 68.0133 48.0411 67.896C48.3078 67.7787 48.6091 67.72 48.9451 67.72ZM53.6704 67.72C54.2571 67.72 54.7051 67.864 55.0144 68.152C55.3291 68.44 55.4864 68.8693 55.4864 69.44V72H54.7584V71.44C54.6304 71.6373 54.4464 71.7893 54.2064 71.896C53.9718 71.9973 53.6918 72.048 53.3664 72.048C52.8918 72.048 52.5104 71.9333 52.2224 71.704C51.9398 71.4747 51.7984 71.1733 51.7984 70.8C51.7984 70.4267 51.9344 70.128 52.2064 69.904C52.4784 69.6747 52.9104 69.56 53.5024 69.56H54.7184V69.408C54.7184 69.0773 54.6224 68.824 54.4304 68.648C54.2384 68.472 53.9558 68.384 53.5824 68.384C53.3318 68.384 53.0864 68.4267 52.8464 68.512C52.6064 68.592 52.4038 68.7013 52.2384 68.84L51.9184 68.264C52.1371 68.088 52.3984 67.9547 52.7024 67.864C53.0064 67.768 53.3291 67.72 53.6704 67.72ZM53.4944 71.456C53.7878 71.456 54.0411 71.392 54.2544 71.264C54.4678 71.1307 54.6224 70.944 54.7184 70.704V70.112H53.5344C52.8838 70.112 52.5584 70.3307 52.5584 70.768C52.5584 70.9813 52.6411 71.1493 52.8064 71.272C52.9718 71.3947 53.2011 71.456 53.4944 71.456ZM56.9077 66.064H57.6757V72H56.9077V66.064ZM63.9065 72.064C63.3465 72.064 62.8398 71.9413 62.3865 71.696C61.9385 71.4453 61.5865 71.104 61.3305 70.672C61.0745 70.2347 60.9465 69.744 60.9465 69.2C60.9465 68.656 61.0745 68.168 61.3305 67.736C61.5865 67.2987 61.9412 66.9573 62.3945 66.712C62.8478 66.4613 63.3545 66.336 63.9145 66.336C64.3518 66.336 64.7518 66.4107 65.1145 66.56C65.4772 66.704 65.7865 66.92 66.0425 67.208L65.5225 67.712C65.1012 67.2693 64.5758 67.048 63.9465 67.048C63.5305 67.048 63.1545 67.1413 62.8185 67.328C62.4825 67.5147 62.2185 67.7733 62.0265 68.104C61.8398 68.4293 61.7465 68.7947 61.7465 69.2C61.7465 69.6053 61.8398 69.9733 62.0265 70.304C62.2185 70.6293 62.4825 70.8853 62.8185 71.072C63.1545 71.2587 63.5305 71.352 63.9465 71.352C64.5705 71.352 65.0958 71.128 65.5225 70.68L66.0425 71.184C65.7865 71.472 65.4745 71.6907 65.1065 71.84C64.7438 71.9893 64.3438 72.064 63.9065 72.064ZM68.7081 72.048C68.2867 72.048 67.9081 71.9547 67.5721 71.768C67.2361 71.5813 66.9721 71.3253 66.7801 71C66.5934 70.6693 66.5001 70.296 66.5001 69.88C66.5001 69.464 66.5934 69.0933 66.7801 68.768C66.9721 68.4373 67.2361 68.1813 67.5721 68C67.9081 67.8133 68.2867 67.72 68.7081 67.72C69.1294 67.72 69.5054 67.8133 69.8361 68C70.1721 68.1813 70.4334 68.4373 70.6201 68.768C70.8121 69.0933 70.9081 69.464 70.9081 69.88C70.9081 70.296 70.8121 70.6693 70.6201 71C70.4334 71.3253 70.1721 71.5813 69.8361 71.768C69.5054 71.9547 69.1294 72.048 68.7081 72.048ZM68.7081 71.376C68.9801 71.376 69.2227 71.3147 69.4361 71.192C69.6547 71.064 69.8254 70.888 69.9481 70.664C70.0707 70.4347 70.1321 70.1733 70.1321 69.88C70.1321 69.5867 70.0707 69.328 69.9481 69.104C69.8254 68.8747 69.6547 68.6987 69.4361 68.576C69.2227 68.4533 68.9801 68.392 68.7081 68.392C68.4361 68.392 68.1907 68.4533 67.9721 68.576C67.7587 68.6987 67.5881 68.8747 67.4601 69.104C67.3374 69.328 67.2761 69.5867 67.2761 69.88C67.2761 70.1733 67.3374 70.4347 67.4601 70.664C67.5881 70.888 67.7587 71.064 67.9721 71.192C68.1907 71.3147 68.4361 71.376 68.7081 71.376ZM73.4751 67.72C74.0618 67.72 74.5098 67.864 74.8191 68.152C75.1338 68.44 75.2911 68.8693 75.2911 69.44V72H74.5631V71.44C74.4351 71.6373 74.2511 71.7893 74.0111 71.896C73.7765 71.9973 73.4965 72.048 73.1711 72.048C72.6965 72.048 72.3151 71.9333 72.0271 71.704C71.7445 71.4747 71.6031 71.1733 71.6031 70.8C71.6031 70.4267 71.7391 70.128 72.0111 69.904C72.2831 69.6747 72.7151 69.56 73.3071 69.56H74.5231V69.408C74.5231 69.0773 74.4271 68.824 74.2351 68.648C74.0431 68.472 73.7605 68.384 73.3871 68.384C73.1365 68.384 72.8911 68.4267 72.6511 68.512C72.4111 68.592 72.2085 68.7013 72.0431 68.84L71.7231 68.264C71.9418 68.088 72.2031 67.9547 72.5071 67.864C72.8111 67.768 73.1338 67.72 73.4751 67.72ZM73.2991 71.456C73.5925 71.456 73.8458 71.392 74.0591 71.264C74.2725 71.1307 74.4271 70.944 74.5231 70.704V70.112H73.3391C72.6885 70.112 72.3631 70.3307 72.3631 70.768C72.3631 70.9813 72.4458 71.1493 72.6111 71.272C72.7765 71.3947 73.0058 71.456 73.2991 71.456ZM78.5838 72.048C78.1518 72.048 77.7651 71.9547 77.4238 71.768C77.0878 71.5813 76.8238 71.3253 76.6318 71C76.4398 70.6693 76.3438 70.296 76.3438 69.88C76.3438 69.464 76.4398 69.0933 76.6318 68.768C76.8238 68.4373 77.0878 68.1813 77.4238 68C77.7651 67.8133 78.1518 67.72 78.5838 67.72C78.9678 67.72 79.3091 67.7973 79.6078 67.952C79.9118 68.1067 80.1465 68.3307 80.3118 68.624L79.7278 69C79.5945 68.7973 79.4291 68.6453 79.2318 68.544C79.0345 68.4427 78.8158 68.392 78.5758 68.392C78.2985 68.392 78.0478 68.4533 77.8238 68.576C77.6051 68.6987 77.4318 68.8747 77.3038 69.104C77.1811 69.328 77.1198 69.5867 77.1198 69.88C77.1198 70.1787 77.1811 70.4427 77.3038 70.672C77.4318 70.896 77.6051 71.0693 77.8238 71.192C78.0478 71.3147 78.2985 71.376 78.5758 71.376C78.8158 71.376 79.0345 71.3253 79.2318 71.224C79.4291 71.1227 79.5945 70.9707 79.7278 70.768L80.3118 71.136C80.1465 71.4293 79.9118 71.656 79.6078 71.816C79.3091 71.9707 78.9678 72.048 78.5838 72.048ZM83.5154 67.72C84.0541 67.72 84.4808 67.8773 84.7954 68.192C85.1154 68.5013 85.2754 68.9573 85.2754 69.56V72H84.5074V69.648C84.5074 69.2373 84.4088 68.928 84.2114 68.72C84.0141 68.512 83.7314 68.408 83.3634 68.408C82.9474 68.408 82.6194 68.5307 82.3794 68.776C82.1394 69.016 82.0194 69.3627 82.0194 69.816V72H81.2514V66.064H82.0194V68.36C82.1794 68.1573 82.3874 68 82.6434 67.888C82.9048 67.776 83.1954 67.72 83.5154 67.72Z" fill="white"/>
</svg>
