<svg width="93" height="94" viewBox="0 0 93 94" fill="none" xmlns="http://www.w3.org/2000/svg">
<path d="M38.0845 18.5V43H32.4145V23.05H27.5145V18.5H38.0845ZM53.8406 43.42C51.8106 43.42 50.0023 42.9183 48.4156 41.915C46.8289 40.9117 45.5806 39.465 44.6706 37.575C43.7839 35.6617 43.3406 33.3867 43.3406 30.75C43.3406 28.1133 43.7839 25.85 44.6706 23.96C45.5806 22.0467 46.8289 20.5883 48.4156 19.585C50.0023 18.5817 51.8106 18.08 53.8406 18.08C55.8706 18.08 57.6789 18.5817 59.2656 19.585C60.8523 20.5883 62.0889 22.0467 62.9756 23.96C63.8856 25.85 64.3406 28.1133 64.3406 30.75C64.3406 33.3867 63.8856 35.6617 62.9756 37.575C62.0889 39.465 60.8523 40.9117 59.2656 41.915C57.6789 42.9183 55.8706 43.42 53.8406 43.42ZM53.8406 38.625C55.3339 38.625 56.5006 37.9833 57.3406 36.7C58.2039 35.4167 58.6356 33.4333 58.6356 30.75C58.6356 28.0667 58.2039 26.0833 57.3406 24.8C56.5006 23.5167 55.3339 22.875 53.8406 22.875C52.3706 22.875 51.2039 23.5167 50.3406 24.8C49.5006 26.0833 49.0806 28.0667 49.0806 30.75C49.0806 33.4333 49.5006 35.4167 50.3406 36.7C51.2039 37.9833 52.3706 38.625 53.8406 38.625Z" fill="#C3C4D4"/>
<path d="M86.5 40C86.5 61.8094 68.5973 79.5 46.5 79.5C24.4027 79.5 6.5 61.8094 6.5 40C6.5 18.1906 24.4027 0.5 46.5 0.5C68.5973 0.5 86.5 18.1906 86.5 40Z" stroke="#C3C4D4"/>
<path d="M83.5 40C83.5 60.1521 66.9409 76.5 46.5 76.5C26.0591 76.5 9.5 60.1521 9.5 40C9.5 19.8479 26.0591 3.5 46.5 3.5C66.9409 3.5 83.5 19.8479 83.5 40Z" stroke="#C3C4D4"/>
<path d="M35.5742 57.632C36.0542 57.784 36.4302 58.04 36.7022 58.4C36.9742 58.752 37.1102 59.188 37.1102 59.708C37.1102 60.444 36.8222 61.012 36.2462 61.412C35.6782 61.804 34.8462 62 33.7502 62H29.4062V53.6H33.5102C34.5342 53.6 35.3182 53.796 35.8622 54.188C36.4142 54.58 36.6902 55.112 36.6902 55.784C36.6902 56.192 36.5902 56.556 36.3902 56.876C36.1982 57.196 35.9262 57.448 35.5742 57.632ZM31.3382 55.064V57.044H33.2702C33.7502 57.044 34.1142 56.96 34.3622 56.792C34.6102 56.624 34.7342 56.376 34.7342 56.048C34.7342 55.72 34.6102 55.476 34.3622 55.316C34.1142 55.148 33.7502 55.064 33.2702 55.064H31.3382ZM33.6062 60.536C34.1182 60.536 34.5022 60.452 34.7582 60.284C35.0222 60.116 35.1542 59.856 35.1542 59.504C35.1542 58.808 34.6382 58.46 33.6062 58.46H31.3382V60.536H33.6062ZM46.0859 60.44V62H39.5819V53.6H45.9299V55.16H41.5139V56.984H45.4139V58.496H41.5139V60.44H46.0859ZM51.3927 62.144C50.7287 62.144 50.0847 62.056 49.4607 61.88C48.8447 61.696 48.3487 61.46 47.9727 61.172L48.6327 59.708C48.9927 59.972 49.4207 60.184 49.9167 60.344C50.4127 60.504 50.9087 60.584 51.4047 60.584C51.9567 60.584 52.3647 60.504 52.6287 60.344C52.8927 60.176 53.0247 59.956 53.0247 59.684C53.0247 59.484 52.9447 59.32 52.7847 59.192C52.6327 59.056 52.4327 58.948 52.1847 58.868C51.9447 58.788 51.6167 58.7 51.2007 58.604C50.5607 58.452 50.0367 58.3 49.6287 58.148C49.2207 57.996 48.8687 57.752 48.5727 57.416C48.2847 57.08 48.1407 56.632 48.1407 56.072C48.1407 55.584 48.2727 55.144 48.5367 54.752C48.8007 54.352 49.1967 54.036 49.7247 53.804C50.2607 53.572 50.9127 53.456 51.6807 53.456C52.2167 53.456 52.7407 53.52 53.2527 53.648C53.7647 53.776 54.2127 53.96 54.5967 54.2L53.9967 55.676C53.2207 55.236 52.4447 55.016 51.6687 55.016C51.1247 55.016 50.7207 55.104 50.4567 55.28C50.2007 55.456 50.0727 55.688 50.0727 55.976C50.0727 56.264 50.2207 56.48 50.5167 56.624C50.8207 56.76 51.2807 56.896 51.8967 57.032C52.5367 57.184 53.0607 57.336 53.4687 57.488C53.8767 57.64 54.2247 57.88 54.5127 58.208C54.8087 58.536 54.9567 58.98 54.9567 59.54C54.9567 60.02 54.8207 60.46 54.5487 60.86C54.2847 61.252 53.8847 61.564 53.3487 61.796C52.8127 62.028 52.1607 62.144 51.3927 62.144ZM58.9079 55.184H56.2199V53.6H63.5399V55.184H60.8519V62H58.9079V55.184Z" fill="#C3C4D4"/>
<path d="M21.4074 92.048C20.9874 92.048 20.6074 91.956 20.2674 91.772C19.9314 91.584 19.6674 91.328 19.4754 91.004C19.2834 90.676 19.1874 90.308 19.1874 89.9C19.1874 89.492 19.2834 89.126 19.4754 88.802C19.6674 88.474 19.9334 88.218 20.2734 88.034C20.6134 87.846 20.9934 87.752 21.4134 87.752C21.7414 87.752 22.0414 87.808 22.3134 87.92C22.5854 88.028 22.8174 88.19 23.0094 88.406L22.6194 88.784C22.3034 88.452 21.9094 88.286 21.4374 88.286C21.1254 88.286 20.8434 88.356 20.5914 88.496C20.3394 88.636 20.1414 88.83 19.9974 89.078C19.8574 89.322 19.7874 89.596 19.7874 89.9C19.7874 90.204 19.8574 90.48 19.9974 90.728C20.1414 90.972 20.3394 91.164 20.5914 91.304C20.8434 91.444 21.1254 91.514 21.4374 91.514C21.9054 91.514 22.2994 91.346 22.6194 91.01L23.0094 91.388C22.8174 91.604 22.5834 91.768 22.3074 91.88C22.0354 91.992 21.7354 92.048 21.4074 92.048ZM23.7814 87.548H24.3574V92H23.7814V87.548ZM25.4571 88.82H26.0331V92H25.4571V88.82ZM25.7451 88.208C25.6331 88.208 25.5391 88.172 25.4631 88.1C25.3911 88.028 25.3551 87.94 25.3551 87.836C25.3551 87.732 25.3911 87.644 25.4631 87.572C25.5391 87.496 25.6331 87.458 25.7451 87.458C25.8571 87.458 25.9491 87.494 26.0211 87.566C26.0971 87.634 26.1351 87.72 26.1351 87.824C26.1351 87.932 26.0971 88.024 26.0211 88.1C25.9491 88.172 25.8571 88.208 25.7451 88.208ZM30.0069 90.428C30.0069 90.472 30.0029 90.53 29.9949 90.602H27.4149C27.4509 90.882 27.5729 91.108 27.7809 91.28C27.9929 91.448 28.2549 91.532 28.5669 91.532C28.9469 91.532 29.2529 91.404 29.4849 91.148L29.8029 91.52C29.6589 91.688 29.4789 91.816 29.2629 91.904C29.0509 91.992 28.8129 92.036 28.5489 92.036C28.2129 92.036 27.9149 91.968 27.6549 91.832C27.3949 91.692 27.1929 91.498 27.0489 91.25C26.9089 91.002 26.8389 90.722 26.8389 90.41C26.8389 90.102 26.9069 89.824 27.0429 89.576C27.1829 89.328 27.3729 89.136 27.6129 89C27.8569 88.86 28.1309 88.79 28.4349 88.79C28.7389 88.79 29.0089 88.86 29.2449 89C29.4849 89.136 29.6709 89.328 29.8029 89.576C29.9389 89.824 30.0069 90.108 30.0069 90.428ZM28.4349 89.276C28.1589 89.276 27.9269 89.36 27.7389 89.528C27.5549 89.696 27.4469 89.916 27.4149 90.188H29.4549C29.4229 89.92 29.3129 89.702 29.1249 89.534C28.9409 89.362 28.7109 89.276 28.4349 89.276ZM32.5047 88.79C32.9087 88.79 33.2287 88.908 33.4647 89.144C33.7047 89.376 33.8247 89.718 33.8247 90.17V92H33.2487V90.236C33.2487 89.928 33.1747 89.696 33.0267 89.54C32.8787 89.384 32.6667 89.306 32.3907 89.306C32.0787 89.306 31.8327 89.398 31.6527 89.582C31.4727 89.762 31.3827 90.022 31.3827 90.362V92H30.8067V88.82H31.3587V89.3C31.4747 89.136 31.6307 89.01 31.8267 88.922C32.0267 88.834 32.2527 88.79 32.5047 88.79ZM36.6787 91.814C36.5947 91.886 36.4907 91.942 36.3667 91.982C36.2427 92.018 36.1147 92.036 35.9827 92.036C35.6627 92.036 35.4147 91.95 35.2387 91.778C35.0627 91.606 34.9747 91.36 34.9747 91.04V89.294H34.4347V88.82H34.9747V88.124H35.5507V88.82H36.4627V89.294H35.5507V91.016C35.5507 91.188 35.5927 91.32 35.6767 91.412C35.7647 91.504 35.8887 91.55 36.0487 91.55C36.2247 91.55 36.3747 91.5 36.4987 91.4L36.6787 91.814ZM40.2944 92.048C39.9784 92.048 39.6724 92 39.3764 91.904C39.0844 91.804 38.8544 91.676 38.6864 91.52L38.9084 91.052C39.0684 91.196 39.2724 91.314 39.5204 91.406C39.7724 91.494 40.0304 91.538 40.2944 91.538C40.6424 91.538 40.9024 91.48 41.0744 91.364C41.2464 91.244 41.3324 91.086 41.3324 90.89C41.3324 90.746 41.2844 90.63 41.1884 90.542C41.0964 90.45 40.9804 90.38 40.8404 90.332C40.7044 90.284 40.5104 90.23 40.2584 90.17C39.9424 90.094 39.6864 90.018 39.4904 89.942C39.2984 89.866 39.1324 89.75 38.9924 89.594C38.8564 89.434 38.7884 89.22 38.7884 88.952C38.7884 88.728 38.8464 88.526 38.9624 88.346C39.0824 88.166 39.2624 88.022 39.5024 87.914C39.7424 87.806 40.0404 87.752 40.3964 87.752C40.6444 87.752 40.8884 87.784 41.1284 87.848C41.3684 87.912 41.5744 88.004 41.7464 88.124L41.5484 88.604C41.3724 88.492 41.1844 88.408 40.9844 88.352C40.7844 88.292 40.5884 88.262 40.3964 88.262C40.0564 88.262 39.8004 88.324 39.6284 88.448C39.4604 88.572 39.3764 88.732 39.3764 88.928C39.3764 89.072 39.4244 89.19 39.5204 89.282C39.6164 89.37 39.7344 89.44 39.8744 89.492C40.0184 89.54 40.2124 89.592 40.4564 89.648C40.7724 89.724 41.0264 89.8 41.2184 89.876C41.4104 89.952 41.5744 90.068 41.7104 90.224C41.8504 90.38 41.9204 90.59 41.9204 90.854C41.9204 91.074 41.8604 91.276 41.7404 91.46C41.6204 91.64 41.4384 91.784 41.1944 91.892C40.9504 91.996 40.6504 92.048 40.2944 92.048ZM43.871 88.79C44.311 88.79 44.647 88.898 44.879 89.114C45.115 89.33 45.233 89.652 45.233 90.08V92H44.687V91.58C44.591 91.728 44.453 91.842 44.273 91.922C44.097 91.998 43.887 92.036 43.643 92.036C43.287 92.036 43.001 91.95 42.785 91.778C42.573 91.606 42.467 91.38 42.467 91.1C42.467 90.82 42.569 90.596 42.773 90.428C42.977 90.256 43.301 90.17 43.745 90.17H44.657V90.056C44.657 89.808 44.585 89.618 44.441 89.486C44.297 89.354 44.085 89.288 43.805 89.288C43.617 89.288 43.433 89.32 43.253 89.384C43.073 89.444 42.921 89.526 42.797 89.63L42.557 89.198C42.721 89.066 42.917 88.966 43.145 88.898C43.373 88.826 43.615 88.79 43.871 88.79ZM43.739 91.592C43.959 91.592 44.149 91.544 44.309 91.448C44.469 91.348 44.585 91.208 44.657 91.028V90.584H43.769C43.281 90.584 43.037 90.748 43.037 91.076C43.037 91.236 43.099 91.362 43.223 91.454C43.347 91.546 43.519 91.592 43.739 91.592ZM48.0869 91.814C48.0029 91.886 47.8989 91.942 47.7749 91.982C47.6509 92.018 47.5229 92.036 47.3909 92.036C47.0709 92.036 46.8229 91.95 46.6469 91.778C46.4709 91.606 46.3829 91.36 46.3829 91.04V89.294H45.8429V88.82H46.3829V88.124H46.9589V88.82H47.8709V89.294H46.9589V91.016C46.9589 91.188 47.0009 91.32 47.0849 91.412C47.1729 91.504 47.2969 91.55 47.4569 91.55C47.6329 91.55 47.7829 91.5 47.9069 91.4L48.0869 91.814ZM48.7833 88.82H49.3593V92H48.7833V88.82ZM49.0713 88.208C48.9593 88.208 48.8653 88.172 48.7893 88.1C48.7173 88.028 48.6813 87.94 48.6813 87.836C48.6813 87.732 48.7173 87.644 48.7893 87.572C48.8653 87.496 48.9593 87.458 49.0713 87.458C49.1833 87.458 49.2753 87.494 49.3473 87.566C49.4233 87.634 49.4613 87.72 49.4613 87.824C49.4613 87.932 49.4233 88.024 49.3473 88.1C49.2753 88.172 49.1833 88.208 49.0713 88.208ZM51.3711 92.036C51.1111 92.036 50.8611 92.002 50.6211 91.934C50.3811 91.862 50.1931 91.772 50.0571 91.664L50.2971 91.208C50.4371 91.308 50.6071 91.388 50.8071 91.448C51.0071 91.508 51.2091 91.538 51.4131 91.538C51.9171 91.538 52.1691 91.394 52.1691 91.106C52.1691 91.01 52.1351 90.934 52.0671 90.878C51.9991 90.822 51.9131 90.782 51.8091 90.758C51.7091 90.73 51.5651 90.7 51.3771 90.668C51.1211 90.628 50.9111 90.582 50.7471 90.53C50.5871 90.478 50.4491 90.39 50.3331 90.266C50.2171 90.142 50.1591 89.968 50.1591 89.744C50.1591 89.456 50.2791 89.226 50.5191 89.054C50.7591 88.878 51.0811 88.79 51.4851 88.79C51.6971 88.79 51.9091 88.816 52.1211 88.868C52.3331 88.92 52.5071 88.99 52.6431 89.078L52.3971 89.534C52.1371 89.366 51.8311 89.282 51.4791 89.282C51.2351 89.282 51.0491 89.322 50.9211 89.402C50.7931 89.482 50.7291 89.588 50.7291 89.72C50.7291 89.824 50.7651 89.906 50.8371 89.966C50.9091 90.026 50.9971 90.07 51.1011 90.098C51.2091 90.126 51.3591 90.158 51.5511 90.194C51.8071 90.238 52.0131 90.286 52.1691 90.338C52.3291 90.386 52.4651 90.47 52.5771 90.59C52.6891 90.71 52.7451 90.878 52.7451 91.094C52.7451 91.382 52.6211 91.612 52.3731 91.784C52.1291 91.952 51.7951 92.036 51.3711 92.036ZM54.6289 87.986C54.2849 87.986 54.1129 88.172 54.1129 88.544V88.82H55.0369V89.294H54.1249V92H53.5489V89.294H53.0089V88.82H53.5489V88.538C53.5489 88.222 53.6409 87.972 53.8249 87.788C54.0089 87.604 54.2669 87.512 54.5989 87.512C54.7269 87.512 54.8469 87.528 54.9589 87.56C55.0709 87.592 55.1669 87.638 55.2469 87.698L55.0729 88.136C54.9409 88.036 54.7929 87.986 54.6289 87.986ZM56.6796 88.79C57.1196 88.79 57.4556 88.898 57.6876 89.114C57.9236 89.33 58.0416 89.652 58.0416 90.08V92H57.4956V91.58C57.3996 91.728 57.2616 91.842 57.0816 91.922C56.9056 91.998 56.6956 92.036 56.4516 92.036C56.0956 92.036 55.8096 91.95 55.5936 91.778C55.3816 91.606 55.2756 91.38 55.2756 91.1C55.2756 90.82 55.3776 90.596 55.5816 90.428C55.7856 90.256 56.1096 90.17 56.5536 90.17H57.4656V90.056C57.4656 89.808 57.3936 89.618 57.2496 89.486C57.1056 89.354 56.8936 89.288 56.6136 89.288C56.4256 89.288 56.2416 89.32 56.0616 89.384C55.8816 89.444 55.7296 89.526 55.6056 89.63L55.3656 89.198C55.5296 89.066 55.7256 88.966 55.9536 88.898C56.1816 88.826 56.4236 88.79 56.6796 88.79ZM56.5476 91.592C56.7676 91.592 56.9576 91.544 57.1176 91.448C57.2776 91.348 57.3936 91.208 57.4656 91.028V90.584H56.5776C56.0896 90.584 55.8456 90.748 55.8456 91.076C55.8456 91.236 55.9076 91.362 56.0316 91.454C56.1556 91.546 56.3276 91.592 56.5476 91.592ZM60.5111 92.036C60.1871 92.036 59.8971 91.966 59.6411 91.826C59.3891 91.686 59.1911 91.494 59.0471 91.25C58.9031 91.002 58.8311 90.722 58.8311 90.41C58.8311 90.098 58.9031 89.82 59.0471 89.576C59.1911 89.328 59.3891 89.136 59.6411 89C59.8971 88.86 60.1871 88.79 60.5111 88.79C60.7991 88.79 61.0551 88.848 61.2791 88.964C61.5071 89.08 61.6831 89.248 61.8071 89.468L61.3691 89.75C61.2691 89.598 61.1451 89.484 60.9971 89.408C60.8491 89.332 60.6851 89.294 60.5051 89.294C60.2971 89.294 60.1091 89.34 59.9411 89.432C59.7771 89.524 59.6471 89.656 59.5511 89.828C59.4591 89.996 59.4131 90.19 59.4131 90.41C59.4131 90.634 59.4591 90.832 59.5511 91.004C59.6471 91.172 59.7771 91.302 59.9411 91.394C60.1091 91.486 60.2971 91.532 60.5051 91.532C60.6851 91.532 60.8491 91.494 60.9971 91.418C61.1451 91.342 61.2691 91.228 61.3691 91.076L61.8071 91.352C61.6831 91.572 61.5071 91.742 61.2791 91.862C61.0551 91.978 60.7991 92.036 60.5111 92.036ZM64.3819 91.814C64.2979 91.886 64.1939 91.942 64.0699 91.982C63.9459 92.018 63.8179 92.036 63.6859 92.036C63.3659 92.036 63.1179 91.95 62.9419 91.778C62.7659 91.606 62.6779 91.36 62.6779 91.04V89.294H62.1379V88.82H62.6779V88.124H63.2539V88.82H64.1659V89.294H63.2539V91.016C63.2539 91.188 63.2959 91.32 63.3799 91.412C63.4679 91.504 63.5919 91.55 63.7519 91.55C63.9279 91.55 64.0779 91.5 64.2019 91.4L64.3819 91.814ZM65.0782 88.82H65.6542V92H65.0782V88.82ZM65.3662 88.208C65.2542 88.208 65.1602 88.172 65.0842 88.1C65.0122 88.028 64.9762 87.94 64.9762 87.836C64.9762 87.732 65.0122 87.644 65.0842 87.572C65.1602 87.496 65.2542 87.458 65.3662 87.458C65.4782 87.458 65.5702 87.494 65.6422 87.566C65.7182 87.634 65.7562 87.72 65.7562 87.824C65.7562 87.932 65.7182 88.024 65.6422 88.1C65.5702 88.172 65.4782 88.208 65.3662 88.208ZM68.116 92.036C67.8 92.036 67.516 91.966 67.264 91.826C67.012 91.686 66.814 91.494 66.67 91.25C66.53 91.002 66.46 90.722 66.46 90.41C66.46 90.098 66.53 89.82 66.67 89.576C66.814 89.328 67.012 89.136 67.264 89C67.516 88.86 67.8 88.79 68.116 88.79C68.432 88.79 68.714 88.86 68.962 89C69.214 89.136 69.41 89.328 69.55 89.576C69.694 89.82 69.766 90.098 69.766 90.41C69.766 90.722 69.694 91.002 69.55 91.25C69.41 91.494 69.214 91.686 68.962 91.826C68.714 91.966 68.432 92.036 68.116 92.036ZM68.116 91.532C68.32 91.532 68.502 91.486 68.662 91.394C68.826 91.298 68.954 91.166 69.046 90.998C69.138 90.826 69.184 90.63 69.184 90.41C69.184 90.19 69.138 89.996 69.046 89.828C68.954 89.656 68.826 89.524 68.662 89.432C68.502 89.34 68.32 89.294 68.116 89.294C67.912 89.294 67.728 89.34 67.564 89.432C67.404 89.524 67.276 89.656 67.18 89.828C67.088 89.996 67.042 90.19 67.042 90.41C67.042 90.63 67.088 90.826 67.18 90.998C67.276 91.166 67.404 91.298 67.564 91.394C67.728 91.486 67.912 91.532 68.116 91.532ZM72.2606 88.79C72.6646 88.79 72.9846 88.908 73.2206 89.144C73.4606 89.376 73.5806 89.718 73.5806 90.17V92H73.0046V90.236C73.0046 89.928 72.9306 89.696 72.7826 89.54C72.6346 89.384 72.4226 89.306 72.1466 89.306C71.8346 89.306 71.5886 89.398 71.4086 89.582C71.2286 89.762 71.1386 90.022 71.1386 90.362V92H70.5626V88.82H71.1146V89.3C71.2306 89.136 71.3866 89.01 71.5826 88.922C71.7826 88.834 72.0086 88.79 72.2606 88.79Z" fill="#C3C4D4"/>
<rect x="32" y="69" width="29" height="13" fill="#C3C4D4"/>
<path d="M40.9345 77.208V78H37.7605V77.37L39.3805 75.84C39.5525 75.676 39.6685 75.536 39.7285 75.42C39.7885 75.3 39.8185 75.182 39.8185 75.066C39.8185 74.898 39.7605 74.77 39.6445 74.682C39.5325 74.59 39.3665 74.544 39.1465 74.544C38.9625 74.544 38.7965 74.58 38.6485 74.652C38.5005 74.72 38.3765 74.824 38.2765 74.964L37.5685 74.508C37.7325 74.264 37.9585 74.074 38.2465 73.938C38.5345 73.798 38.8645 73.728 39.2365 73.728C39.5485 73.728 39.8205 73.78 40.0525 73.884C40.2885 73.984 40.4705 74.128 40.5985 74.316C40.7305 74.5 40.7965 74.718 40.7965 74.97C40.7965 75.198 40.7485 75.412 40.6525 75.612C40.5565 75.812 40.3705 76.04 40.0945 76.296L39.1285 77.208H40.9345ZM44.1238 78.072C43.7758 78.072 43.4658 77.986 43.1938 77.814C42.9218 77.642 42.7078 77.394 42.5518 77.07C42.3998 76.742 42.3238 76.352 42.3238 75.9C42.3238 75.448 42.3998 75.06 42.5518 74.736C42.7078 74.408 42.9218 74.158 43.1938 73.986C43.4658 73.814 43.7758 73.728 44.1238 73.728C44.4718 73.728 44.7818 73.814 45.0538 73.986C45.3258 74.158 45.5378 74.408 45.6898 74.736C45.8458 75.06 45.9238 75.448 45.9238 75.9C45.9238 76.352 45.8458 76.742 45.6898 77.07C45.5378 77.394 45.3258 77.642 45.0538 77.814C44.7818 77.986 44.4718 78.072 44.1238 78.072ZM44.1238 77.25C44.3798 77.25 44.5798 77.14 44.7238 76.92C44.8718 76.7 44.9458 76.36 44.9458 75.9C44.9458 75.44 44.8718 75.1 44.7238 74.88C44.5798 74.66 44.3798 74.55 44.1238 74.55C43.8718 74.55 43.6718 74.66 43.5238 74.88C43.3798 75.1 43.3078 75.44 43.3078 75.9C43.3078 76.36 43.3798 76.7 43.5238 76.92C43.6718 77.14 43.8718 77.25 44.1238 77.25ZM48.981 73.8V78H48.009V74.58H47.169V73.8H48.981ZM53.5846 75.792C53.7926 75.896 53.9506 76.032 54.0586 76.2C54.1706 76.368 54.2266 76.562 54.2266 76.782C54.2266 77.042 54.1526 77.27 54.0046 77.466C53.8566 77.658 53.6486 77.808 53.3806 77.916C53.1126 78.02 52.8026 78.072 52.4506 78.072C52.0986 78.072 51.7886 78.02 51.5206 77.916C51.2566 77.808 51.0506 77.658 50.9026 77.466C50.7586 77.27 50.6866 77.042 50.6866 76.782C50.6866 76.562 50.7406 76.368 50.8486 76.2C50.9606 76.032 51.1186 75.896 51.3226 75.792C51.1666 75.696 51.0466 75.576 50.9626 75.432C50.8786 75.284 50.8366 75.116 50.8366 74.928C50.8366 74.684 50.9046 74.472 51.0406 74.292C51.1766 74.112 51.3666 73.974 51.6106 73.878C51.8546 73.778 52.1346 73.728 52.4506 73.728C52.7706 73.728 53.0526 73.778 53.2966 73.878C53.5446 73.974 53.7366 74.112 53.8726 74.292C54.0086 74.472 54.0766 74.684 54.0766 74.928C54.0766 75.116 54.0346 75.284 53.9506 75.432C53.8666 75.576 53.7446 75.696 53.5846 75.792ZM52.4506 74.442C52.2546 74.442 52.0966 74.49 51.9766 74.586C51.8606 74.678 51.8026 74.806 51.8026 74.97C51.8026 75.13 51.8606 75.256 51.9766 75.348C52.0926 75.44 52.2506 75.486 52.4506 75.486C52.6506 75.486 52.8106 75.44 52.9306 75.348C53.0506 75.256 53.1106 75.13 53.1106 74.97C53.1106 74.806 53.0506 74.678 52.9306 74.586C52.8106 74.49 52.6506 74.442 52.4506 74.442ZM52.4506 77.358C52.6946 77.358 52.8866 77.304 53.0266 77.196C53.1706 77.084 53.2426 76.936 53.2426 76.752C53.2426 76.568 53.1706 76.422 53.0266 76.314C52.8866 76.206 52.6946 76.152 52.4506 76.152C52.2106 76.152 52.0206 76.206 51.8806 76.314C51.7406 76.422 51.6706 76.568 51.6706 76.752C51.6706 76.94 51.7406 77.088 51.8806 77.196C52.0206 77.304 52.2106 77.358 52.4506 77.358Z" fill="white"/>
</svg>
