<svg width="80" height="80" viewBox="0 0 80 80" fill="none" xmlns="http://www.w3.org/2000/svg">
<rect x="0.5" y="0.5" width="79" height="79" rx="7.5" stroke="#C3C4D4"/>
<path d="M24.13 40.12C23.5767 40.12 23.04 40.0467 22.52 39.9C22.0067 39.7467 21.5933 39.55 21.28 39.31L21.83 38.09C22.13 38.31 22.4867 38.4867 22.9 38.62C23.3133 38.7533 23.7267 38.82 24.14 38.82C24.6 38.82 24.94 38.7533 25.16 38.62C25.38 38.48 25.49 38.2967 25.49 38.07C25.49 37.9033 25.4233 37.7667 25.29 37.66C25.1633 37.5467 24.9967 37.4567 24.79 37.39C24.59 37.3233 24.3167 37.25 23.97 37.17C23.4367 37.0433 23 36.9167 22.66 36.79C22.32 36.6633 22.0267 36.46 21.78 36.18C21.54 35.9 21.42 35.5267 21.42 35.06C21.42 34.6533 21.53 34.2867 21.75 33.96C21.97 33.6267 22.3 33.3633 22.74 33.17C23.1867 32.9767 23.73 32.88 24.37 32.88C24.8167 32.88 25.2533 32.9333 25.68 33.04C26.1067 33.1467 26.48 33.3 26.8 33.5L26.3 34.73C25.6533 34.3633 25.0067 34.18 24.36 34.18C23.9067 34.18 23.57 34.2533 23.35 34.4C23.1367 34.5467 23.03 34.74 23.03 34.98C23.03 35.22 23.1533 35.4 23.4 35.52C23.6533 35.6333 24.0367 35.7467 24.55 35.86C25.0833 35.9867 25.52 36.1133 25.86 36.24C26.2 36.3667 26.49 36.5667 26.73 36.84C26.9767 37.1133 27.1 37.4833 27.1 37.95C27.1 38.35 26.9867 38.7167 26.76 39.05C26.54 39.3767 26.2067 39.6367 25.76 39.83C25.3133 40.0233 24.77 40.12 24.13 40.12ZM33.517 34.62V40H32.037V39.36C31.8303 39.5933 31.5836 39.7733 31.297 39.9C31.0103 40.02 30.7003 40.08 30.367 40.08C29.6603 40.08 29.1003 39.8767 28.687 39.47C28.2736 39.0633 28.067 38.46 28.067 37.66V34.62H29.627V37.43C29.627 38.2967 29.9903 38.73 30.717 38.73C31.0903 38.73 31.3903 38.61 31.617 38.37C31.8436 38.1233 31.957 37.76 31.957 37.28V34.62H33.517ZM38.1422 34.54C38.6422 34.54 39.0955 34.6567 39.5022 34.89C39.9155 35.1167 40.2389 35.44 40.4722 35.86C40.7055 36.2733 40.8222 36.7567 40.8222 37.31C40.8222 37.8633 40.7055 38.35 40.4722 38.77C40.2389 39.1833 39.9155 39.5067 39.5022 39.74C39.0955 39.9667 38.6422 40.08 38.1422 40.08C37.4555 40.08 36.9155 39.8633 36.5222 39.43V41.94H34.9622V34.62H36.4522V35.24C36.8389 34.7733 37.4022 34.54 38.1422 34.54ZM37.8722 38.8C38.2722 38.8 38.5989 38.6667 38.8522 38.4C39.1122 38.1267 39.2422 37.7633 39.2422 37.31C39.2422 36.8567 39.1122 36.4967 38.8522 36.23C38.5989 35.9567 38.2722 35.82 37.8722 35.82C37.4722 35.82 37.1422 35.9567 36.8822 36.23C36.6289 36.4967 36.5022 36.8567 36.5022 37.31C36.5022 37.7633 36.6289 38.1267 36.8822 38.4C37.1422 38.6667 37.4722 38.8 37.8722 38.8ZM47.1365 37.33C47.1365 37.35 47.1265 37.49 47.1065 37.75H43.0365C43.1098 38.0833 43.2832 38.3467 43.5565 38.54C43.8298 38.7333 44.1698 38.83 44.5765 38.83C44.8565 38.83 45.1032 38.79 45.3165 38.71C45.5365 38.6233 45.7398 38.49 45.9265 38.31L46.7565 39.21C46.2498 39.79 45.5098 40.08 44.5365 40.08C43.9298 40.08 43.3932 39.9633 42.9265 39.73C42.4598 39.49 42.0998 39.16 41.8465 38.74C41.5932 38.32 41.4665 37.8433 41.4665 37.31C41.4665 36.7833 41.5898 36.31 41.8365 35.89C42.0898 35.4633 42.4332 35.1333 42.8665 34.9C43.3065 34.66 43.7965 34.54 44.3365 34.54C44.8632 34.54 45.3398 34.6533 45.7665 34.88C46.1932 35.1067 46.5265 35.4333 46.7665 35.86C47.0132 36.28 47.1365 36.77 47.1365 37.33ZM44.3465 35.72C43.9932 35.72 43.6965 35.82 43.4565 36.02C43.2165 36.22 43.0698 36.4933 43.0165 36.84H45.6665C45.6132 36.5 45.4665 36.23 45.2265 36.03C44.9865 35.8233 44.6932 35.72 44.3465 35.72ZM49.6651 35.33C49.8517 35.07 50.1017 34.8733 50.4151 34.74C50.7351 34.6067 51.1017 34.54 51.5151 34.54V35.98C51.3417 35.9667 51.2251 35.96 51.1651 35.96C50.7184 35.96 50.3684 36.0867 50.1151 36.34C49.8617 36.5867 49.7351 36.96 49.7351 37.46V40H48.1751V34.62H49.6651V35.33ZM55.6227 34.54C56.1227 34.54 56.576 34.6567 56.9827 34.89C57.396 35.1167 57.7193 35.44 57.9527 35.86C58.186 36.2733 58.3027 36.7567 58.3027 37.31C58.3027 37.8633 58.186 38.35 57.9527 38.77C57.7193 39.1833 57.396 39.5067 56.9827 39.74C56.576 39.9667 56.1227 40.08 55.6227 40.08C54.8827 40.08 54.3193 39.8467 53.9327 39.38V40H52.4427V32.58H54.0027V35.19C54.396 34.7567 54.936 34.54 55.6227 34.54ZM55.3527 38.8C55.7527 38.8 56.0793 38.6667 56.3327 38.4C56.5927 38.1267 56.7227 37.7633 56.7227 37.31C56.7227 36.8567 56.5927 36.4967 56.3327 36.23C56.0793 35.9567 55.7527 35.82 55.3527 35.82C54.9527 35.82 54.6227 35.9567 54.3627 36.23C54.1093 36.4967 53.9827 36.8567 53.9827 37.31C53.9827 37.7633 54.1093 38.1267 54.3627 38.4C54.6227 38.6667 54.9527 38.8 55.3527 38.8Z" fill="#C3C4D4"/>
<path d="M26.944 13.8V25H24.352V15.88H22.112V13.8H26.944ZM34.6896 25.192C33.7616 25.192 32.935 24.9627 32.2096 24.504C31.4843 24.0453 30.9136 23.384 30.4976 22.52C30.0923 21.6453 29.8896 20.6053 29.8896 19.4C29.8896 18.1947 30.0923 17.16 30.4976 16.296C30.9136 15.4213 31.4843 14.7547 32.2096 14.296C32.935 13.8373 33.7616 13.608 34.6896 13.608C35.6176 13.608 36.4443 13.8373 37.1696 14.296C37.895 14.7547 38.4603 15.4213 38.8656 16.296C39.2816 17.16 39.4896 18.1947 39.4896 19.4C39.4896 20.6053 39.2816 21.6453 38.8656 22.52C38.4603 23.384 37.895 24.0453 37.1696 24.504C36.4443 24.9627 35.6176 25.192 34.6896 25.192ZM34.6896 23C35.3723 23 35.9056 22.7067 36.2896 22.12C36.6843 21.5333 36.8816 20.6267 36.8816 19.4C36.8816 18.1733 36.6843 17.2667 36.2896 16.68C35.9056 16.0933 35.3723 15.8 34.6896 15.8C34.0176 15.8 33.4843 16.0933 33.0896 16.68C32.7056 17.2667 32.5136 18.1733 32.5136 19.4C32.5136 20.6267 32.7056 21.5333 33.0896 22.12C33.4843 22.7067 34.0176 23 34.6896 23ZM43.0179 25.128C42.5805 25.128 42.2125 24.9787 41.9139 24.68C41.6152 24.3813 41.4659 24.008 41.4659 23.56C41.4659 23.1013 41.6152 22.7333 41.9139 22.456C42.2125 22.168 42.5805 22.024 43.0179 22.024C43.4552 22.024 43.8232 22.168 44.1219 22.456C44.4205 22.7333 44.5699 23.1013 44.5699 23.56C44.5699 24.008 44.4205 24.3813 44.1219 24.68C43.8232 24.9787 43.4552 25.128 43.0179 25.128ZM51.3303 25.192C50.4023 25.192 49.5756 24.9627 48.8503 24.504C48.1249 24.0453 47.5543 23.384 47.1383 22.52C46.7329 21.6453 46.5303 20.6053 46.5303 19.4C46.5303 18.1947 46.7329 17.16 47.1383 16.296C47.5543 15.4213 48.1249 14.7547 48.8503 14.296C49.5756 13.8373 50.4023 13.608 51.3303 13.608C52.2583 13.608 53.0849 13.8373 53.8103 14.296C54.5356 14.7547 55.1009 15.4213 55.5063 16.296C55.9223 17.16 56.1303 18.1947 56.1303 19.4C56.1303 20.6053 55.9223 21.6453 55.5063 22.52C55.1009 23.384 54.5356 24.0453 53.8103 24.504C53.0849 24.9627 52.2583 25.192 51.3303 25.192ZM51.3303 23C52.0129 23 52.5463 22.7067 52.9303 22.12C53.3249 21.5333 53.5223 20.6267 53.5223 19.4C53.5223 18.1733 53.3249 17.2667 52.9303 16.68C52.5463 16.0933 52.0129 15.8 51.3303 15.8C50.6583 15.8 50.1249 16.0933 49.7303 16.68C49.3463 17.2667 49.1543 18.1733 49.1543 19.4C49.1543 20.6267 49.3463 21.5333 49.7303 22.12C50.1249 22.7067 50.6583 23 51.3303 23Z" fill="#C3C4D4"/>
<path d="M0 52H80V72C80 76.4183 76.4183 80 72 80H8C3.58172 80 0 76.4183 0 72V52Z" fill="#C3C4D4"/>
<path d="M24.2637 58.709H22.5837V58.1H26.6367V58.709H24.9567V63H24.2637V58.709ZM28.5073 63.042C28.1386 63.042 27.8073 62.9603 27.5133 62.797C27.2193 62.6337 26.9883 62.4097 26.8203 62.125C26.6569 61.8357 26.5753 61.509 26.5753 61.145C26.5753 60.781 26.6569 60.4567 26.8203 60.172C26.9883 59.8827 27.2193 59.6587 27.5133 59.5C27.8073 59.3367 28.1386 59.255 28.5073 59.255C28.8759 59.255 29.2049 59.3367 29.4943 59.5C29.7883 59.6587 30.0169 59.8827 30.1803 60.172C30.3483 60.4567 30.4323 60.781 30.4323 61.145C30.4323 61.509 30.3483 61.8357 30.1803 62.125C30.0169 62.4097 29.7883 62.6337 29.4943 62.797C29.2049 62.9603 28.8759 63.042 28.5073 63.042ZM28.5073 62.454C28.7453 62.454 28.9576 62.4003 29.1443 62.293C29.3356 62.181 29.4849 62.027 29.5923 61.831C29.6996 61.6303 29.7533 61.4017 29.7533 61.145C29.7533 60.8883 29.6996 60.662 29.5923 60.466C29.4849 60.2653 29.3356 60.1113 29.1443 60.004C28.9576 59.8967 28.7453 59.843 28.5073 59.843C28.2693 59.843 28.0546 59.8967 27.8633 60.004C27.6766 60.1113 27.5273 60.2653 27.4153 60.466C27.3079 60.662 27.2543 60.8883 27.2543 61.145C27.2543 61.4017 27.3079 61.6303 27.4153 61.831C27.5273 62.027 27.6766 62.181 27.8633 62.293C28.0546 62.4003 28.2693 62.454 28.5073 62.454ZM33.3286 59.255C33.6879 59.255 34.0099 59.3343 34.2946 59.493C34.5793 59.6517 34.8009 59.8733 34.9596 60.158C35.1229 60.4427 35.2046 60.7717 35.2046 61.145C35.2046 61.5183 35.1229 61.8497 34.9596 62.139C34.8009 62.4237 34.5793 62.6453 34.2946 62.804C34.0099 62.9627 33.6879 63.042 33.3286 63.042C33.0626 63.042 32.8176 62.9907 32.5936 62.888C32.3743 62.7853 32.1876 62.636 32.0336 62.44V64.358H31.3616V59.29H32.0056V59.878C32.1549 59.6727 32.3439 59.5187 32.5726 59.416C32.8013 59.3087 33.0533 59.255 33.3286 59.255ZM33.2726 62.454C33.5106 62.454 33.7229 62.4003 33.9096 62.293C34.1009 62.181 34.2503 62.027 34.3576 61.831C34.4696 61.6303 34.5256 61.4017 34.5256 61.145C34.5256 60.8883 34.4696 60.662 34.3576 60.466C34.2503 60.2653 34.1009 60.1113 33.9096 60.004C33.7229 59.8967 33.5106 59.843 33.2726 59.843C33.0393 59.843 32.8269 59.899 32.6356 60.011C32.4489 60.1183 32.2996 60.27 32.1876 60.466C32.0803 60.662 32.0266 60.8883 32.0266 61.145C32.0266 61.4017 32.0803 61.6303 32.1876 61.831C32.2949 62.027 32.4443 62.181 32.6356 62.293C32.8269 62.4003 33.0393 62.454 33.2726 62.454ZM41.387 63L40.33 61.495C40.1993 61.5043 40.0966 61.509 40.022 61.509H38.811V63H38.111V58.1H40.022C40.6566 58.1 41.156 58.2517 41.52 58.555C41.884 58.8583 42.066 59.276 42.066 59.808C42.066 60.186 41.9726 60.508 41.786 60.774C41.5993 61.04 41.3333 61.2337 40.988 61.355L42.15 63H41.387ZM40.001 60.914C40.4443 60.914 40.7826 60.8183 41.016 60.627C41.2493 60.4357 41.366 60.1627 41.366 59.808C41.366 59.4533 41.2493 59.1827 41.016 58.996C40.7826 58.8047 40.4443 58.709 40.001 58.709H38.811V60.914H40.001ZM44.4157 59.255C44.9291 59.255 45.3211 59.381 45.5917 59.633C45.8671 59.885 46.0047 60.2607 46.0047 60.76V63H45.3677V62.51C45.2557 62.6827 45.0947 62.8157 44.8847 62.909C44.6794 62.9977 44.4344 63.042 44.1497 63.042C43.7344 63.042 43.4007 62.9417 43.1487 62.741C42.9014 62.5403 42.7777 62.2767 42.7777 61.95C42.7777 61.6233 42.8967 61.362 43.1347 61.166C43.3727 60.9653 43.7507 60.865 44.2687 60.865H45.3327V60.732C45.3327 60.4427 45.2487 60.221 45.0807 60.067C44.9127 59.913 44.6654 59.836 44.3387 59.836C44.1194 59.836 43.9047 59.8733 43.6947 59.948C43.4847 60.018 43.3074 60.1137 43.1627 60.235L42.8827 59.731C43.0741 59.577 43.3027 59.4603 43.5687 59.381C43.8347 59.297 44.1171 59.255 44.4157 59.255ZM44.2617 62.524C44.5184 62.524 44.7401 62.468 44.9267 62.356C45.1134 62.2393 45.2487 62.076 45.3327 61.866V61.348H44.2967C43.7274 61.348 43.4427 61.5393 43.4427 61.922C43.4427 62.1087 43.5151 62.2557 43.6597 62.363C43.8044 62.4703 44.0051 62.524 44.2617 62.524ZM49.3343 62.783C49.2363 62.867 49.115 62.9323 48.9703 62.979C48.8257 63.021 48.6763 63.042 48.5223 63.042C48.149 63.042 47.8597 62.9417 47.6543 62.741C47.449 62.5403 47.3463 62.2533 47.3463 61.88V59.843H46.7163V59.29H47.3463V58.478H48.0183V59.29H49.0823V59.843H48.0183V61.852C48.0183 62.0527 48.0673 62.2067 48.1653 62.314C48.268 62.4213 48.4127 62.475 48.5993 62.475C48.8047 62.475 48.9797 62.4167 49.1243 62.3L49.3343 62.783ZM53.3767 61.166C53.3767 61.2173 53.3721 61.285 53.3627 61.369H50.3527C50.3947 61.6957 50.5371 61.9593 50.7797 62.16C51.0271 62.356 51.3327 62.454 51.6967 62.454C52.1401 62.454 52.4971 62.3047 52.7677 62.006L53.1387 62.44C52.9707 62.636 52.7607 62.7853 52.5087 62.888C52.2614 62.9907 51.9837 63.042 51.6757 63.042C51.2837 63.042 50.9361 62.9627 50.6327 62.804C50.3294 62.6407 50.0937 62.4143 49.9257 62.125C49.7624 61.8357 49.6807 61.509 49.6807 61.145C49.6807 60.7857 49.7601 60.4613 49.9187 60.172C50.0821 59.8827 50.3037 59.6587 50.5837 59.5C50.8684 59.3367 51.1881 59.255 51.5427 59.255C51.8974 59.255 52.2124 59.3367 52.4877 59.5C52.7677 59.6587 52.9847 59.8827 53.1387 60.172C53.2974 60.4613 53.3767 60.7927 53.3767 61.166ZM51.5427 59.822C51.2207 59.822 50.9501 59.92 50.7307 60.116C50.5161 60.312 50.3901 60.5687 50.3527 60.886H52.7327C52.6954 60.5733 52.5671 60.319 52.3477 60.123C52.1331 59.9223 51.8647 59.822 51.5427 59.822ZM57.8099 57.806V63H57.1659V62.412C57.0165 62.6173 56.8275 62.7737 56.5989 62.881C56.3702 62.9883 56.1182 63.042 55.8429 63.042C55.4835 63.042 55.1615 62.9627 54.8769 62.804C54.5922 62.6453 54.3682 62.4237 54.2049 62.139C54.0462 61.8497 53.9669 61.5183 53.9669 61.145C53.9669 60.7717 54.0462 60.4427 54.2049 60.158C54.3682 59.8733 54.5922 59.6517 54.8769 59.493C55.1615 59.3343 55.4835 59.255 55.8429 59.255C56.1089 59.255 56.3539 59.3063 56.5779 59.409C56.8019 59.507 56.9885 59.654 57.1379 59.85V57.806H57.8099ZM55.8989 62.454C56.1322 62.454 56.3445 62.4003 56.5359 62.293C56.7272 62.181 56.8765 62.027 56.9839 61.831C57.0912 61.6303 57.1449 61.4017 57.1449 61.145C57.1449 60.8883 57.0912 60.662 56.9839 60.466C56.8765 60.2653 56.7272 60.1113 56.5359 60.004C56.3445 59.8967 56.1322 59.843 55.8989 59.843C55.6609 59.843 55.4462 59.8967 55.2549 60.004C55.0682 60.1113 54.9189 60.2653 54.8069 60.466C54.6995 60.662 54.6459 60.8883 54.6459 61.145C54.6459 61.4017 54.6995 61.6303 54.8069 61.831C54.9189 62.027 55.0682 62.181 55.2549 62.293C55.4462 62.4003 55.6609 62.454 55.8989 62.454ZM11.7041 68.1C12.3388 68.1 12.8381 68.2517 13.2021 68.555C13.5661 68.8583 13.7481 69.276 13.7481 69.808C13.7481 70.34 13.5661 70.7577 13.2021 71.061C12.8381 71.3643 12.3388 71.516 11.7041 71.516H10.4931V73H9.79311V68.1H11.7041ZM11.6831 70.907C12.1264 70.907 12.4648 70.8137 12.6981 70.627C12.9314 70.4357 13.0481 70.1627 13.0481 69.808C13.0481 69.4533 12.9314 69.1827 12.6981 68.996C12.4648 68.8047 12.1264 68.709 11.6831 68.709H10.4931V70.907H11.6831ZM18.0178 71.166C18.0178 71.2173 18.0132 71.285 18.0038 71.369H14.9938C15.0358 71.6957 15.1782 71.9593 15.4208 72.16C15.6682 72.356 15.9738 72.454 16.3378 72.454C16.7812 72.454 17.1382 72.3047 17.4088 72.006L17.7798 72.44C17.6118 72.636 17.4018 72.7853 17.1498 72.888C16.9025 72.9907 16.6248 73.042 16.3168 73.042C15.9248 73.042 15.5772 72.9627 15.2738 72.804C14.9705 72.6407 14.7348 72.4143 14.5668 72.125C14.4035 71.8357 14.3218 71.509 14.3218 71.145C14.3218 70.7857 14.4012 70.4613 14.5598 70.172C14.7232 69.8827 14.9448 69.6587 15.2248 69.5C15.5095 69.3367 15.8292 69.255 16.1838 69.255C16.5385 69.255 16.8535 69.3367 17.1288 69.5C17.4088 69.6587 17.6258 69.8827 17.7798 70.172C17.9385 70.4613 18.0178 70.7927 18.0178 71.166ZM16.1838 69.822C15.8618 69.822 15.5912 69.92 15.3718 70.116C15.1572 70.312 15.0312 70.5687 14.9938 70.886H17.3738C17.3365 70.5733 17.2082 70.319 16.9888 70.123C16.7742 69.9223 16.5058 69.822 16.1838 69.822ZM19.595 69.913C19.7116 69.6983 19.8843 69.535 20.113 69.423C20.3416 69.311 20.6193 69.255 20.946 69.255V69.906C20.9086 69.9013 20.8573 69.899 20.792 69.899C20.428 69.899 20.141 70.0087 19.931 70.228C19.7256 70.4427 19.623 70.7507 19.623 71.152V73H18.951V69.29H19.595V69.913ZM22.8656 73.042C22.5622 73.042 22.2706 73.0023 21.9906 72.923C21.7106 72.839 21.4912 72.734 21.3326 72.608L21.6126 72.076C21.7759 72.1927 21.9742 72.286 22.2076 72.356C22.4409 72.426 22.6766 72.461 22.9146 72.461C23.5026 72.461 23.7966 72.293 23.7966 71.957C23.7966 71.845 23.7569 71.7563 23.6776 71.691C23.5982 71.6257 23.4979 71.579 23.3766 71.551C23.2599 71.5183 23.0919 71.4833 22.8726 71.446C22.5739 71.3993 22.3289 71.3457 22.1376 71.285C21.9509 71.2243 21.7899 71.1217 21.6546 70.977C21.5192 70.8323 21.4516 70.6293 21.4516 70.368C21.4516 70.032 21.5916 69.7637 21.8716 69.563C22.1516 69.3577 22.5272 69.255 22.9986 69.255C23.2459 69.255 23.4932 69.2853 23.7406 69.346C23.9879 69.4067 24.1909 69.4883 24.3496 69.591L24.0626 70.123C23.7592 69.927 23.4022 69.829 22.9916 69.829C22.7069 69.829 22.4899 69.8757 22.3406 69.969C22.1912 70.0623 22.1166 70.186 22.1166 70.34C22.1166 70.4613 22.1586 70.557 22.2426 70.627C22.3266 70.697 22.4292 70.7483 22.5506 70.781C22.6766 70.8137 22.8516 70.851 23.0756 70.893C23.3742 70.9443 23.6146 71.0003 23.7966 71.061C23.9832 71.117 24.1419 71.215 24.2726 71.355C24.4032 71.495 24.4686 71.691 24.4686 71.943C24.4686 72.279 24.3239 72.5473 24.0346 72.748C23.7499 72.944 23.3602 73.042 22.8656 73.042ZM26.8974 73.042C26.5287 73.042 26.1974 72.9603 25.9034 72.797C25.6094 72.6337 25.3784 72.4097 25.2104 72.125C25.0471 71.8357 24.9654 71.509 24.9654 71.145C24.9654 70.781 25.0471 70.4567 25.2104 70.172C25.3784 69.8827 25.6094 69.6587 25.9034 69.5C26.1974 69.3367 26.5287 69.255 26.8974 69.255C27.2661 69.255 27.5951 69.3367 27.8844 69.5C28.1784 69.6587 28.4071 69.8827 28.5704 70.172C28.7384 70.4567 28.8224 70.781 28.8224 71.145C28.8224 71.509 28.7384 71.8357 28.5704 72.125C28.4071 72.4097 28.1784 72.6337 27.8844 72.797C27.5951 72.9603 27.2661 73.042 26.8974 73.042ZM26.8974 72.454C27.1354 72.454 27.3477 72.4003 27.5344 72.293C27.7257 72.181 27.8751 72.027 27.9824 71.831C28.0897 71.6303 28.1434 71.4017 28.1434 71.145C28.1434 70.8883 28.0897 70.662 27.9824 70.466C27.8751 70.2653 27.7257 70.1113 27.5344 70.004C27.3477 69.8967 27.1354 69.843 26.8974 69.843C26.6594 69.843 26.4447 69.8967 26.2534 70.004C26.0667 70.1113 25.9174 70.2653 25.8054 70.466C25.6981 70.662 25.6444 70.8883 25.6444 71.145C25.6444 71.4017 25.6981 71.6303 25.8054 71.831C25.9174 72.027 26.0667 72.181 26.2534 72.293C26.4447 72.4003 26.6594 72.454 26.8974 72.454ZM31.7327 69.255C32.2041 69.255 32.5774 69.3927 32.8527 69.668C33.1327 69.9387 33.2727 70.3377 33.2727 70.865V73H32.6007V70.942C32.6007 70.5827 32.5144 70.312 32.3417 70.13C32.1691 69.948 31.9217 69.857 31.5997 69.857C31.2357 69.857 30.9487 69.9643 30.7387 70.179C30.5287 70.389 30.4237 70.6923 30.4237 71.089V73H29.7517V69.29H30.3957V69.85C30.5311 69.6587 30.7131 69.5117 30.9417 69.409C31.1751 69.3063 31.4387 69.255 31.7327 69.255ZM35.8674 69.255C36.3807 69.255 36.7727 69.381 37.0434 69.633C37.3187 69.885 37.4564 70.2607 37.4564 70.76V73H36.8194V72.51C36.7074 72.6827 36.5464 72.8157 36.3364 72.909C36.1311 72.9977 35.8861 73.042 35.6014 73.042C35.1861 73.042 34.8524 72.9417 34.6004 72.741C34.3531 72.5403 34.2294 72.2767 34.2294 71.95C34.2294 71.6233 34.3484 71.362 34.5864 71.166C34.8244 70.9653 35.2024 70.865 35.7204 70.865H36.7844V70.732C36.7844 70.4427 36.7004 70.221 36.5324 70.067C36.3644 69.913 36.1171 69.836 35.7904 69.836C35.5711 69.836 35.3564 69.8733 35.1464 69.948C34.9364 70.018 34.7591 70.1137 34.6144 70.235L34.3344 69.731C34.5257 69.577 34.7544 69.4603 35.0204 69.381C35.2864 69.297 35.5687 69.255 35.8674 69.255ZM35.7134 72.524C35.9701 72.524 36.1917 72.468 36.3784 72.356C36.5651 72.2393 36.7004 72.076 36.7844 71.866V71.348H35.7484C35.1791 71.348 34.8944 71.5393 34.8944 71.922C34.8944 72.1087 34.9667 72.2557 35.1114 72.363C35.2561 72.4703 35.4567 72.524 35.7134 72.524ZM38.7 67.806H39.372V73H38.7V67.806ZM44.8239 73.056C44.3339 73.056 43.8906 72.9487 43.4939 72.734C43.1019 72.5147 42.7939 72.216 42.5699 71.838C42.3459 71.4553 42.2339 71.026 42.2339 70.55C42.2339 70.074 42.3459 69.647 42.5699 69.269C42.7939 68.8863 43.1043 68.5877 43.5009 68.373C43.8976 68.1537 44.3409 68.044 44.8309 68.044C45.2136 68.044 45.5636 68.1093 45.8809 68.24C46.1983 68.366 46.4689 68.555 46.6929 68.807L46.2379 69.248C45.8693 68.8607 45.4096 68.667 44.8589 68.667C44.4949 68.667 44.1659 68.7487 43.8719 68.912C43.5779 69.0753 43.3469 69.3017 43.1789 69.591C43.0156 69.8757 42.9339 70.1953 42.9339 70.55C42.9339 70.9047 43.0156 71.2267 43.1789 71.516C43.3469 71.8007 43.5779 72.0247 43.8719 72.188C44.1659 72.3513 44.4949 72.433 44.8589 72.433C45.4049 72.433 45.8646 72.237 46.2379 71.845L46.6929 72.286C46.4689 72.538 46.1959 72.7293 45.8739 72.86C45.5566 72.9907 45.2066 73.056 44.8239 73.056ZM49.0253 73.042C48.6566 73.042 48.3253 72.9603 48.0313 72.797C47.7373 72.6337 47.5063 72.4097 47.3383 72.125C47.175 71.8357 47.0933 71.509 47.0933 71.145C47.0933 70.781 47.175 70.4567 47.3383 70.172C47.5063 69.8827 47.7373 69.6587 48.0313 69.5C48.3253 69.3367 48.6566 69.255 49.0253 69.255C49.394 69.255 49.723 69.3367 50.0123 69.5C50.3063 69.6587 50.535 69.8827 50.6983 70.172C50.8663 70.4567 50.9503 70.781 50.9503 71.145C50.9503 71.509 50.8663 71.8357 50.6983 72.125C50.535 72.4097 50.3063 72.6337 50.0123 72.797C49.723 72.9603 49.394 73.042 49.0253 73.042ZM49.0253 72.454C49.2633 72.454 49.4756 72.4003 49.6623 72.293C49.8536 72.181 50.003 72.027 50.1103 71.831C50.2176 71.6303 50.2713 71.4017 50.2713 71.145C50.2713 70.8883 50.2176 70.662 50.1103 70.466C50.003 70.2653 49.8536 70.1113 49.6623 70.004C49.4756 69.8967 49.2633 69.843 49.0253 69.843C48.7873 69.843 48.5726 69.8967 48.3813 70.004C48.1946 70.1113 48.0453 70.2653 47.9333 70.466C47.826 70.662 47.7723 70.8883 47.7723 71.145C47.7723 71.4017 47.826 71.6303 47.9333 71.831C48.0453 72.027 48.1946 72.181 48.3813 72.293C48.5726 72.4003 48.7873 72.454 49.0253 72.454ZM53.1965 69.255C53.7098 69.255 54.1018 69.381 54.3725 69.633C54.6478 69.885 54.7855 70.2607 54.7855 70.76V73H54.1485V72.51C54.0365 72.6827 53.8755 72.8157 53.6655 72.909C53.4602 72.9977 53.2152 73.042 52.9305 73.042C52.5152 73.042 52.1815 72.9417 51.9295 72.741C51.6822 72.5403 51.5585 72.2767 51.5585 71.95C51.5585 71.6233 51.6775 71.362 51.9155 71.166C52.1535 70.9653 52.5315 70.865 53.0495 70.865H54.1135V70.732C54.1135 70.4427 54.0295 70.221 53.8615 70.067C53.6935 69.913 53.4462 69.836 53.1195 69.836C52.9002 69.836 52.6855 69.8733 52.4755 69.948C52.2655 70.018 52.0882 70.1137 51.9435 70.235L51.6635 69.731C51.8548 69.577 52.0835 69.4603 52.3495 69.381C52.6155 69.297 52.8978 69.255 53.1965 69.255ZM53.0425 72.524C53.2992 72.524 53.5208 72.468 53.7075 72.356C53.8942 72.2393 54.0295 72.076 54.1135 71.866V71.348H53.0775C52.5082 71.348 52.2235 71.5393 52.2235 71.922C52.2235 72.1087 52.2958 72.2557 52.4405 72.363C52.5852 72.4703 52.7858 72.524 53.0425 72.524ZM57.6666 73.042C57.2886 73.042 56.9503 72.9603 56.6516 72.797C56.3576 72.6337 56.1266 72.4097 55.9586 72.125C55.7906 71.8357 55.7066 71.509 55.7066 71.145C55.7066 70.781 55.7906 70.4567 55.9586 70.172C56.1266 69.8827 56.3576 69.6587 56.6516 69.5C56.9503 69.3367 57.2886 69.255 57.6666 69.255C58.0026 69.255 58.3013 69.3227 58.5626 69.458C58.8286 69.5933 59.0339 69.7893 59.1786 70.046L58.6676 70.375C58.5509 70.1977 58.4063 70.0647 58.2336 69.976C58.0609 69.8873 57.8696 69.843 57.6596 69.843C57.4169 69.843 57.1976 69.8967 57.0016 70.004C56.8103 70.1113 56.6586 70.2653 56.5466 70.466C56.4393 70.662 56.3856 70.8883 56.3856 71.145C56.3856 71.4063 56.4393 71.6373 56.5466 71.838C56.6586 72.034 56.8103 72.1857 57.0016 72.293C57.1976 72.4003 57.4169 72.454 57.6596 72.454C57.8696 72.454 58.0609 72.4097 58.2336 72.321C58.4063 72.2323 58.5509 72.0993 58.6676 71.922L59.1786 72.244C59.0339 72.5007 58.8286 72.699 58.5626 72.839C58.3013 72.9743 58.0026 73.042 57.6666 73.042ZM61.9818 69.255C62.4531 69.255 62.8264 69.3927 63.1018 69.668C63.3818 69.9387 63.5218 70.3377 63.5218 70.865V73H62.8498V70.942C62.8498 70.5827 62.7634 70.312 62.5908 70.13C62.4181 69.948 62.1708 69.857 61.8488 69.857C61.4848 69.857 61.1978 69.9643 60.9878 70.179C60.7778 70.389 60.6728 70.6923 60.6728 71.089V73H60.0008V67.806H60.6728V69.815C60.8128 69.6377 60.9948 69.5 61.2188 69.402C61.4474 69.304 61.7018 69.255 61.9818 69.255ZM68.1389 71.166C68.1389 71.2173 68.1343 71.285 68.1249 71.369H65.1149C65.1569 71.6957 65.2993 71.9593 65.5419 72.16C65.7893 72.356 66.0949 72.454 66.4589 72.454C66.9023 72.454 67.2593 72.3047 67.5299 72.006L67.9009 72.44C67.7329 72.636 67.5229 72.7853 67.2709 72.888C67.0236 72.9907 66.7459 73.042 66.4379 73.042C66.0459 73.042 65.6983 72.9627 65.3949 72.804C65.0916 72.6407 64.8559 72.4143 64.6879 72.125C64.5246 71.8357 64.4429 71.509 64.4429 71.145C64.4429 70.7857 64.5223 70.4613 64.6809 70.172C64.8443 69.8827 65.0659 69.6587 65.3459 69.5C65.6306 69.3367 65.9503 69.255 66.3049 69.255C66.6596 69.255 66.9746 69.3367 67.2499 69.5C67.5299 69.6587 67.7469 69.8827 67.9009 70.172C68.0596 70.4613 68.1389 70.7927 68.1389 71.166ZM66.3049 69.822C65.9829 69.822 65.7123 69.92 65.4929 70.116C65.2783 70.312 65.1523 70.5687 65.1149 70.886H67.4949C67.4576 70.5733 67.3293 70.319 67.1099 70.123C66.8953 69.9223 66.6269 69.822 66.3049 69.822ZM70.1361 73.042C69.8327 73.042 69.5411 73.0023 69.2611 72.923C68.9811 72.839 68.7617 72.734 68.6031 72.608L68.8831 72.076C69.0464 72.1927 69.2447 72.286 69.4781 72.356C69.7114 72.426 69.9471 72.461 70.1851 72.461C70.7731 72.461 71.0671 72.293 71.0671 71.957C71.0671 71.845 71.0274 71.7563 70.9481 71.691C70.8687 71.6257 70.7684 71.579 70.6471 71.551C70.5304 71.5183 70.3624 71.4833 70.1431 71.446C69.8444 71.3993 69.5994 71.3457 69.4081 71.285C69.2214 71.2243 69.0604 71.1217 68.9251 70.977C68.7897 70.8323 68.7221 70.6293 68.7221 70.368C68.7221 70.032 68.8621 69.7637 69.1421 69.563C69.4221 69.3577 69.7977 69.255 70.2691 69.255C70.5164 69.255 70.7637 69.2853 71.0111 69.346C71.2584 69.4067 71.4614 69.4883 71.6201 69.591L71.3331 70.123C71.0297 69.927 70.6727 69.829 70.2621 69.829C69.9774 69.829 69.7604 69.8757 69.6111 69.969C69.4617 70.0623 69.3871 70.186 69.3871 70.34C69.3871 70.4613 69.4291 70.557 69.5131 70.627C69.5971 70.697 69.6997 70.7483 69.8211 70.781C69.9471 70.8137 70.1221 70.851 70.3461 70.893C70.6447 70.9443 70.8851 71.0003 71.0671 71.061C71.2537 71.117 71.4124 71.215 71.5431 71.355C71.6737 71.495 71.7391 71.691 71.7391 71.943C71.7391 72.279 71.5944 72.5473 71.3051 72.748C71.0204 72.944 70.6307 73.042 70.1361 73.042Z" fill="white"/>
</svg>
