<svg width="90" height="90" viewBox="0 0 90 90" fill="none" xmlns="http://www.w3.org/2000/svg">
<circle cx="45" cy="45" r="44.5" stroke="#C3C4D4"/>
<circle cx="45" cy="45" r="41.5" stroke="#C3C4D4"/>
<path d="M14.42 42.48H11.06V40.5H20.21V42.48H16.85V51H14.42V42.48ZM27.456 51.18C26.366 51.18 25.381 50.945 24.501 50.475C23.631 50.005 22.946 49.36 22.446 48.54C21.956 47.71 21.711 46.78 21.711 45.75C21.711 44.72 21.956 43.795 22.446 42.975C22.946 42.145 23.631 41.495 24.501 41.025C25.381 40.555 26.366 40.32 27.456 40.32C28.546 40.32 29.526 40.555 30.396 41.025C31.266 41.495 31.951 42.145 32.451 42.975C32.951 43.795 33.201 44.72 33.201 45.75C33.201 46.78 32.951 47.71 32.451 48.54C31.951 49.36 31.266 50.005 30.396 50.475C29.526 50.945 28.546 51.18 27.456 51.18ZM27.456 49.11C28.076 49.11 28.636 48.97 29.136 48.69C29.636 48.4 30.026 48 30.306 47.49C30.596 46.98 30.741 46.4 30.741 45.75C30.741 45.1 30.596 44.52 30.306 44.01C30.026 43.5 29.636 43.105 29.136 42.825C28.636 42.535 28.076 42.39 27.456 42.39C26.836 42.39 26.276 42.535 25.776 42.825C25.276 43.105 24.881 43.5 24.591 44.01C24.311 44.52 24.171 45.1 24.171 45.75C24.171 46.4 24.311 46.98 24.591 47.49C24.881 48 25.276 48.4 25.776 48.69C26.276 48.97 26.836 49.11 27.456 49.11ZM40.5722 40.5C41.5022 40.5 42.3072 40.655 42.9872 40.965C43.6772 41.275 44.2072 41.715 44.5772 42.285C44.9472 42.855 45.1322 43.53 45.1322 44.31C45.1322 45.08 44.9472 45.755 44.5772 46.335C44.2072 46.905 43.6772 47.345 42.9872 47.655C42.3072 47.955 41.5022 48.105 40.5722 48.105H38.4572V51H36.0272V40.5H40.5722ZM40.4372 46.125C41.1672 46.125 41.7222 45.97 42.1022 45.66C42.4822 45.34 42.6722 44.89 42.6722 44.31C42.6722 43.72 42.4822 43.27 42.1022 42.96C41.7222 42.64 41.1672 42.48 40.4372 42.48H38.4572V46.125H40.4372ZM56.6516 40.5V51H54.2216V42.45H52.1216V40.5H56.6516ZM63.9756 51.18C63.1056 51.18 62.3306 50.965 61.6506 50.535C60.9706 50.105 60.4356 49.485 60.0456 48.675C59.6656 47.855 59.4756 46.88 59.4756 45.75C59.4756 44.62 59.6656 43.65 60.0456 42.84C60.4356 42.02 60.9706 41.395 61.6506 40.965C62.3306 40.535 63.1056 40.32 63.9756 40.32C64.8456 40.32 65.6206 40.535 66.3006 40.965C66.9806 41.395 67.5106 42.02 67.8906 42.84C68.2806 43.65 68.4756 44.62 68.4756 45.75C68.4756 46.88 68.2806 47.855 67.8906 48.675C67.5106 49.485 66.9806 50.105 66.3006 50.535C65.6206 50.965 64.8456 51.18 63.9756 51.18ZM63.9756 49.125C64.6156 49.125 65.1156 48.85 65.4756 48.3C65.8456 47.75 66.0306 46.9 66.0306 45.75C66.0306 44.6 65.8456 43.75 65.4756 43.2C65.1156 42.65 64.6156 42.375 63.9756 42.375C63.3456 42.375 62.8456 42.65 62.4756 43.2C62.1156 43.75 61.9356 44.6 61.9356 45.75C61.9356 46.9 62.1156 47.75 62.4756 48.3C62.8456 48.85 63.3456 49.125 63.9756 49.125ZM75.1563 51.18C74.2863 51.18 73.5113 50.965 72.8313 50.535C72.1513 50.105 71.6163 49.485 71.2263 48.675C70.8463 47.855 70.6563 46.88 70.6563 45.75C70.6563 44.62 70.8463 43.65 71.2263 42.84C71.6163 42.02 72.1513 41.395 72.8313 40.965C73.5113 40.535 74.2863 40.32 75.1563 40.32C76.0263 40.32 76.8013 40.535 77.4813 40.965C78.1613 41.395 78.6913 42.02 79.0713 42.84C79.4613 43.65 79.6563 44.62 79.6563 45.75C79.6563 46.88 79.4613 47.855 79.0713 48.675C78.6913 49.485 78.1613 50.105 77.4813 50.535C76.8013 50.965 76.0263 51.18 75.1563 51.18ZM75.1563 49.125C75.7963 49.125 76.2963 48.85 76.6563 48.3C77.0263 47.75 77.2113 46.9 77.2113 45.75C77.2113 44.6 77.0263 43.75 76.6563 43.2C76.2963 42.65 75.7963 42.375 75.1563 42.375C74.5263 42.375 74.0263 42.65 73.6563 43.2C73.2963 43.75 73.1163 44.6 73.1163 45.75C73.1163 46.9 73.2963 47.75 73.6563 48.3C74.0263 48.85 74.5263 49.125 75.1563 49.125Z" fill="#C3C4D4"/>
<path d="M20.1988 64.064V66H19.4068V64.048L17.1828 60.4H18.0388L19.8308 63.352L21.6308 60.4H22.4228L20.1988 64.064ZM24.462 66.048C24.0406 66.048 23.662 65.9547 23.326 65.768C22.99 65.5813 22.726 65.3253 22.534 65C22.3473 64.6693 22.254 64.296 22.254 63.88C22.254 63.464 22.3473 63.0933 22.534 62.768C22.726 62.4373 22.99 62.1813 23.326 62C23.662 61.8133 24.0406 61.72 24.462 61.72C24.8833 61.72 25.2593 61.8133 25.59 62C25.926 62.1813 26.1873 62.4373 26.374 62.768C26.566 63.0933 26.662 63.464 26.662 63.88C26.662 64.296 26.566 64.6693 26.374 65C26.1873 65.3253 25.926 65.5813 25.59 65.768C25.2593 65.9547 24.8833 66.048 24.462 66.048ZM24.462 65.376C24.734 65.376 24.9766 65.3147 25.19 65.192C25.4086 65.064 25.5793 64.888 25.702 64.664C25.8246 64.4347 25.886 64.1733 25.886 63.88C25.886 63.5867 25.8246 63.328 25.702 63.104C25.5793 62.8747 25.4086 62.6987 25.19 62.576C24.9766 62.4533 24.734 62.392 24.462 62.392C24.19 62.392 23.9446 62.4533 23.726 62.576C23.5126 62.6987 23.342 62.8747 23.214 63.104C23.0913 63.328 23.03 63.5867 23.03 63.88C23.03 64.1733 23.0913 64.4347 23.214 64.664C23.342 64.888 23.5126 65.064 23.726 65.192C23.9446 65.3147 24.19 65.376 24.462 65.376ZM31.7801 61.76V65.424C31.7801 66.1653 31.5961 66.712 31.2281 67.064C30.8601 67.4213 30.3108 67.6 29.5801 67.6C29.1801 67.6 28.7988 67.544 28.4361 67.432C28.0734 67.3253 27.7801 67.1707 27.5561 66.968L27.9241 66.376C28.1214 66.5467 28.3641 66.68 28.6521 66.776C28.9454 66.8773 29.2468 66.928 29.5561 66.928C30.0521 66.928 30.4174 66.8107 30.6521 66.576C30.8921 66.3413 31.0121 65.984 31.0121 65.504V65.168C30.8308 65.3867 30.6068 65.552 30.3401 65.664C30.0788 65.7707 29.7934 65.824 29.4841 65.824C29.0788 65.824 28.7108 65.7387 28.3801 65.568C28.0548 65.392 27.7988 65.1493 27.6121 64.84C27.4254 64.5253 27.3321 64.168 27.3321 63.768C27.3321 63.368 27.4254 63.0133 27.6121 62.704C27.7988 62.3893 28.0548 62.1467 28.3801 61.976C28.7108 61.8053 29.0788 61.72 29.4841 61.72C29.8041 61.72 30.1001 61.7787 30.3721 61.896C30.6494 62.0133 30.8761 62.1867 31.0521 62.416V61.76H31.7801ZM29.5721 65.152C29.8494 65.152 30.0974 65.0933 30.3161 64.976C30.5401 64.8587 30.7134 64.696 30.8361 64.488C30.9641 64.2747 31.0281 64.0347 31.0281 63.768C31.0281 63.3573 30.8921 63.0267 30.6201 62.776C30.3481 62.52 29.9988 62.392 29.5721 62.392C29.1401 62.392 28.7881 62.52 28.5161 62.776C28.2441 63.0267 28.1081 63.3573 28.1081 63.768C28.1081 64.0347 28.1694 64.2747 28.2921 64.488C28.4201 64.696 28.5934 64.8587 28.8121 64.976C29.0361 65.0933 29.2894 65.152 29.5721 65.152ZM34.7915 61.72C35.3782 61.72 35.8262 61.864 36.1355 62.152C36.4502 62.44 36.6075 62.8693 36.6075 63.44V66H35.8795V65.44C35.7515 65.6373 35.5675 65.7893 35.3275 65.896C35.0929 65.9973 34.8129 66.048 34.4875 66.048C34.0129 66.048 33.6315 65.9333 33.3435 65.704C33.0609 65.4747 32.9195 65.1733 32.9195 64.8C32.9195 64.4267 33.0555 64.128 33.3275 63.904C33.5995 63.6747 34.0315 63.56 34.6235 63.56H35.8395V63.408C35.8395 63.0773 35.7435 62.824 35.5515 62.648C35.3595 62.472 35.0769 62.384 34.7035 62.384C34.4529 62.384 34.2075 62.4267 33.9675 62.512C33.7275 62.592 33.5249 62.7013 33.3595 62.84L33.0395 62.264C33.2582 62.088 33.5195 61.9547 33.8235 61.864C34.1275 61.768 34.4502 61.72 34.7915 61.72ZM34.6155 65.456C34.9089 65.456 35.1622 65.392 35.3755 65.264C35.5889 65.1307 35.7435 64.944 35.8395 64.704V64.112H34.6555C34.0049 64.112 33.6795 64.3307 33.6795 64.768C33.6795 64.9813 33.7622 65.1493 33.9275 65.272C34.0929 65.3947 34.3222 65.456 34.6155 65.456ZM42.7932 66.064C42.2332 66.064 41.7266 65.9413 41.2732 65.696C40.8252 65.4453 40.4732 65.104 40.2172 64.672C39.9612 64.2347 39.8332 63.744 39.8332 63.2C39.8332 62.656 39.9612 62.168 40.2172 61.736C40.4732 61.2987 40.8279 60.9573 41.2812 60.712C41.7346 60.4613 42.2412 60.336 42.8012 60.336C43.2386 60.336 43.6386 60.4107 44.0012 60.56C44.3639 60.704 44.6732 60.92 44.9292 61.208L44.4092 61.712C43.9879 61.2693 43.4626 61.048 42.8332 61.048C42.4172 61.048 42.0412 61.1413 41.7052 61.328C41.3692 61.5147 41.1052 61.7733 40.9132 62.104C40.7266 62.4293 40.6332 62.7947 40.6332 63.2C40.6332 63.6053 40.7266 63.9733 40.9132 64.304C41.1052 64.6293 41.3692 64.8853 41.7052 65.072C42.0412 65.2587 42.4172 65.352 42.8332 65.352C43.4572 65.352 43.9826 65.128 44.4092 64.68L44.9292 65.184C44.6732 65.472 44.3612 65.6907 43.9932 65.84C43.6306 65.9893 43.2306 66.064 42.7932 66.064ZM47.5948 66.048C47.1734 66.048 46.7948 65.9547 46.4588 65.768C46.1228 65.5813 45.8588 65.3253 45.6668 65C45.4801 64.6693 45.3868 64.296 45.3868 63.88C45.3868 63.464 45.4801 63.0933 45.6668 62.768C45.8588 62.4373 46.1228 62.1813 46.4588 62C46.7948 61.8133 47.1734 61.72 47.5948 61.72C48.0161 61.72 48.3921 61.8133 48.7228 62C49.0588 62.1813 49.3201 62.4373 49.5068 62.768C49.6988 63.0933 49.7948 63.464 49.7948 63.88C49.7948 64.296 49.6988 64.6693 49.5068 65C49.3201 65.3253 49.0588 65.5813 48.7228 65.768C48.3921 65.9547 48.0161 66.048 47.5948 66.048ZM47.5948 65.376C47.8668 65.376 48.1094 65.3147 48.3228 65.192C48.5414 65.064 48.7121 64.888 48.8348 64.664C48.9574 64.4347 49.0188 64.1733 49.0188 63.88C49.0188 63.5867 48.9574 63.328 48.8348 63.104C48.7121 62.8747 48.5414 62.6987 48.3228 62.576C48.1094 62.4533 47.8668 62.392 47.5948 62.392C47.3228 62.392 47.0774 62.4533 46.8588 62.576C46.6454 62.6987 46.4748 62.8747 46.3468 63.104C46.2241 63.328 46.1628 63.5867 46.1628 63.88C46.1628 64.1733 46.2241 64.4347 46.3468 64.664C46.4748 64.888 46.6454 65.064 46.8588 65.192C47.0774 65.3147 47.3228 65.376 47.5948 65.376ZM52.3618 61.72C52.9485 61.72 53.3965 61.864 53.7058 62.152C54.0205 62.44 54.1778 62.8693 54.1778 63.44V66H53.4498V65.44C53.3218 65.6373 53.1378 65.7893 52.8978 65.896C52.6632 65.9973 52.3832 66.048 52.0578 66.048C51.5832 66.048 51.2018 65.9333 50.9138 65.704C50.6312 65.4747 50.4898 65.1733 50.4898 64.8C50.4898 64.4267 50.6258 64.128 50.8978 63.904C51.1698 63.6747 51.6018 63.56 52.1938 63.56H53.4098V63.408C53.4098 63.0773 53.3138 62.824 53.1218 62.648C52.9298 62.472 52.6472 62.384 52.2738 62.384C52.0232 62.384 51.7778 62.4267 51.5378 62.512C51.2978 62.592 51.0952 62.7013 50.9298 62.84L50.6098 62.264C50.8285 62.088 51.0898 61.9547 51.3938 61.864C51.6978 61.768 52.0205 61.72 52.3618 61.72ZM52.1858 65.456C52.4792 65.456 52.7325 65.392 52.9458 65.264C53.1592 65.1307 53.3138 64.944 53.4098 64.704V64.112H52.2258C51.5752 64.112 51.2498 64.3307 51.2498 64.768C51.2498 64.9813 51.3325 65.1493 51.4978 65.272C51.6632 65.3947 51.8925 65.456 52.1858 65.456ZM57.4705 66.048C57.0385 66.048 56.6519 65.9547 56.3105 65.768C55.9745 65.5813 55.7105 65.3253 55.5185 65C55.3265 64.6693 55.2305 64.296 55.2305 63.88C55.2305 63.464 55.3265 63.0933 55.5185 62.768C55.7105 62.4373 55.9745 62.1813 56.3105 62C56.6519 61.8133 57.0385 61.72 57.4705 61.72C57.8545 61.72 58.1959 61.7973 58.4945 61.952C58.7985 62.1067 59.0332 62.3307 59.1985 62.624L58.6145 63C58.4812 62.7973 58.3159 62.6453 58.1185 62.544C57.9212 62.4427 57.7025 62.392 57.4625 62.392C57.1852 62.392 56.9345 62.4533 56.7105 62.576C56.4919 62.6987 56.3185 62.8747 56.1905 63.104C56.0679 63.328 56.0065 63.5867 56.0065 63.88C56.0065 64.1787 56.0679 64.4427 56.1905 64.672C56.3185 64.896 56.4919 65.0693 56.7105 65.192C56.9345 65.3147 57.1852 65.376 57.4625 65.376C57.7025 65.376 57.9212 65.3253 58.1185 65.224C58.3159 65.1227 58.4812 64.9707 58.6145 64.768L59.1985 65.136C59.0332 65.4293 58.7985 65.656 58.4945 65.816C58.1959 65.9707 57.8545 66.048 57.4705 66.048ZM62.4022 61.72C62.9408 61.72 63.3675 61.8773 63.6822 62.192C64.0022 62.5013 64.1622 62.9573 64.1622 63.56V66H63.3942V63.648C63.3942 63.2373 63.2955 62.928 63.0982 62.72C62.9008 62.512 62.6182 62.408 62.2502 62.408C61.8342 62.408 61.5062 62.5307 61.2662 62.776C61.0262 63.016 60.9062 63.3627 60.9062 63.816V66H60.1382V60.064H60.9062V62.36C61.0662 62.1573 61.2742 62 61.5302 61.888C61.7915 61.776 62.0822 61.72 62.4022 61.72ZM69.4389 63.904C69.4389 63.9627 69.4336 64.04 69.4229 64.136H65.9829C66.0309 64.5093 66.1936 64.8107 66.4709 65.04C66.7536 65.264 67.1029 65.376 67.5189 65.376C68.0256 65.376 68.4336 65.2053 68.7429 64.864L69.1669 65.36C68.9749 65.584 68.7349 65.7547 68.4469 65.872C68.1642 65.9893 67.8469 66.048 67.4949 66.048C67.0469 66.048 66.6496 65.9573 66.3029 65.776C65.9562 65.5893 65.6869 65.3307 65.4949 65C65.3082 64.6693 65.2149 64.296 65.2149 63.88C65.2149 63.4693 65.3056 63.0987 65.4869 62.768C65.6736 62.4373 65.9269 62.1813 66.2469 62C66.5722 61.8133 66.9376 61.72 67.3429 61.72C67.7482 61.72 68.1082 61.8133 68.4229 62C68.7429 62.1813 68.9909 62.4373 69.1669 62.768C69.3482 63.0987 69.4389 63.4773 69.4389 63.904ZM67.3429 62.368C66.9749 62.368 66.6656 62.48 66.4149 62.704C66.1696 62.928 66.0256 63.2213 65.9829 63.584H68.7029C68.6602 63.2267 68.5136 62.936 68.2629 62.712C68.0176 62.4827 67.7109 62.368 67.3429 62.368ZM71.7213 66.048C71.3747 66.048 71.0413 66.0027 70.7213 65.912C70.4013 65.816 70.1507 65.696 69.9693 65.552L70.2893 64.944C70.476 65.0773 70.7027 65.184 70.9693 65.264C71.236 65.344 71.5053 65.384 71.7773 65.384C72.4493 65.384 72.7853 65.192 72.7853 64.808C72.7853 64.68 72.74 64.5787 72.6493 64.504C72.5587 64.4293 72.444 64.376 72.3053 64.344C72.172 64.3067 71.98 64.2667 71.7293 64.224C71.388 64.1707 71.108 64.1093 70.8893 64.04C70.676 63.9707 70.492 63.8533 70.3373 63.688C70.1827 63.5227 70.1053 63.2907 70.1053 62.992C70.1053 62.608 70.2653 62.3013 70.5853 62.072C70.9053 61.8373 71.3347 61.72 71.8733 61.72C72.156 61.72 72.4387 61.7547 72.7213 61.824C73.004 61.8933 73.236 61.9867 73.4173 62.104L73.0893 62.712C72.7427 62.488 72.3347 62.376 71.8653 62.376C71.54 62.376 71.292 62.4293 71.1213 62.536C70.9507 62.6427 70.8653 62.784 70.8653 62.96C70.8653 63.0987 70.9133 63.208 71.0093 63.288C71.1053 63.368 71.2227 63.4267 71.3613 63.464C71.5053 63.5013 71.7053 63.544 71.9613 63.592C72.3027 63.6507 72.5773 63.7147 72.7853 63.784C72.9987 63.848 73.18 63.96 73.3293 64.12C73.4787 64.28 73.5533 64.504 73.5533 64.792C73.5533 65.176 73.388 65.4827 73.0573 65.712C72.732 65.936 72.2867 66.048 71.7213 66.048Z" fill="#C3C4D4"/>
<g clip-path="url(#clip0)">
<path d="M50.0063 22.8758L46.485 22.4578L45 19.2361L43.5147 22.4578L39.9938 22.8758L42.5971 25.2841L41.9058 28.7639L45 27.0309L48.0942 28.7639L47.403 25.2841L50.0063 22.8758Z" fill="#C3C4D4"/>
</g>
<g clip-path="url(#clip1)">
<path d="M37.0063 22.8758L33.485 22.4578L32 19.2361L30.5147 22.4578L26.9938 22.8758L29.5971 25.2841L28.9058 28.7639L32 27.0309L35.0942 28.7639L34.403 25.2841L37.0063 22.8758Z" fill="#C3C4D4"/>
</g>
<g clip-path="url(#clip2)">
<path d="M63.0063 22.8758L59.485 22.4578L58 19.2361L56.5147 22.4578L52.9938 22.8758L55.5971 25.2841L54.9058 28.7639L58 27.0309L61.0942 28.7639L60.403 25.2841L63.0063 22.8758Z" fill="#C3C4D4"/>
</g>
<defs>
<clipPath id="clip0">
<rect width="10" height="10" fill="white" transform="translate(40 19)"/>
</clipPath>
<clipPath id="clip1">
<rect width="10" height="10" fill="white" transform="translate(27 19)"/>
</clipPath>
<clipPath id="clip2">
<rect width="10" height="10" fill="white" transform="translate(53 19)"/>
</clipPath>
</defs>
</svg>
